<svg xmlns="http://www.w3.org/2000/svg" enable-background="new 0 0 3000 3000" viewBox="0 0 3000 3000"><rect width="3000" height="3000" fill="#fff"/><path fill="#ddd" d="M2750.11,1295.29c-70.8-175.95-388.54-173.85-709.7,4.69c-6.87,3.82-13.69,7.69-20.46,11.62
		c-5.81,3.37-12.77,0.31-15.42-6.65c-0.41-1.09-0.84-2.17-1.27-3.24c-58.37-145.07-284.61-169.1-542.23-73
		c-5.46,2.04-11.36-1-13.81-7.09v0c-70.8-175.95-388.54-173.85-709.7,4.69s-524.11,465.91-453.32,641.86
		c58.37,145.07,284.61,169.1,542.23,73c5.46-2.04,11.36,1,13.81,7.09v0c70.8,175.95,388.54,173.85,709.7-4.69
		c6.87-3.82,13.69-7.69,20.46-11.62c5.81-3.37,12.77-0.31,15.42,6.65c0.41,1.09,0.84,2.17,1.27,3.24
		c70.8,175.95,388.54,173.85,709.7-4.69C2617.95,1758.61,2820.91,1471.24,2750.11,1295.29z" opacity=".14"/><rect width="79.2" height="103.07" x="1968.1" y="1371.24" fill="#fcbf7f" transform="rotate(-34.855 2007.583 1422.74)"/><path fill="#fcbf7f" d="M1960.81,1420.35c0,0-38.88-37.01-35.77-47.66c3.11-10.66,16.06-2.13,16.06-2.13s-21.93-20.99-13.12-29.76
				c8.81-8.77,16.41,1.73,16.41,1.73s-13.69-12.11-4.29-21.28c9.4-9.18,20.74,8.37,20.74,8.37s-7.97-8.98-0.91-15.16
				c15.89-13.91,58.53,55.2,58.53,55.2L1960.81,1420.35z"/><path fill="#fcbf7f" d="M2009.37,1365.72c0,0,1.11-22.86,16.85-29.73c21.31-9.3,5.81,62.27,5.81,62.27L2009.37,1365.72z"/><line x1="1979.58" x2="1961.58" y1="1353.69" y2="1332.43" fill="#fff"/><path fill="#2e0f3e" d="M1979.58,1355.19c-0.43,0-0.85-0.18-1.15-0.53l-18-21.25c-0.54-0.63-0.46-1.58,0.17-2.11
					c0.63-0.54,1.58-0.46,2.11,0.18l18,21.25c0.54,0.63,0.46,1.58-0.17,2.11C1980.27,1355.07,1979.92,1355.19,1979.58,1355.19z"/><line x1="1964.76" x2="1946.76" y1="1364.31" y2="1343.06" fill="#fff"/><path fill="#2e0f3e" d="M1964.76,1365.81c-0.43,0-0.85-0.18-1.15-0.53l-18-21.25c-0.54-0.63-0.46-1.58,0.17-2.11
					c0.63-0.54,1.58-0.46,2.11,0.18l18,21.25c0.54,0.63,0.46,1.58-0.17,2.11C1965.45,1365.7,1965.11,1365.81,1964.76,1365.81z"/><line x1="1954.11" x2="1943.08" y1="1386.36" y2="1372.09" fill="#fff"/><path fill="#2e0f3e" d="M1954.11,1387.86c-0.45,0-0.89-0.2-1.19-0.58l-11.03-14.27c-0.51-0.66-0.39-1.6,0.27-2.1
					c0.65-0.51,1.6-0.39,2.1,0.27l11.03,14.27c0.51,0.66,0.39,1.6-0.27,2.1C1954.75,1387.76,1954.43,1387.86,1954.11,1387.86z"/><path fill="#2e0f3e" d="M2001.93,1407.79c-0.42,0-0.83-0.17-1.13-0.51c-16.63-18.9,2.09-36.13,2.28-36.31
				c0.62-0.55,1.56-0.5,2.12,0.11c0.55,0.61,0.5,1.56-0.11,2.12c-0.69,0.62-16.69,15.44-2.04,32.1c0.55,0.62,0.49,1.57-0.13,2.12
				C2002.63,1407.66,2002.28,1407.79,2001.93,1407.79z"/><path fill="#eaeaea" d="M2205.69,1625.22c-57.05,0-116.08-29.96-175.51-89.12c-41.63-41.43-68.88-83.13-70.02-84.88l83.86-54.47
			c0.19,0.29,23.45,35.67,57.89,69.65c39.2,38.7,76.68,59.56,105.47,58.8c29.02-0.78,72.67-29.44,119.77-78.61
			c21.75-22.71,40.29-45.62,53.01-62.27c10.56-13.84,30.07-17.04,44.51-7.31l56.66,38.17c-1.37,2.03-34.05,50.34-80.89,99.47
			c-68.44,71.77-132.49,108.95-190.35,110.51C2208.62,1625.2,2207.16,1625.22,2205.69,1625.22z"/><path fill="#a7dcdd" d="M2729.29,1841.18h-388.8v-365.97c0-76.35,61.89-138.24,138.24-138.24h112.32
			c76.35,0,138.24,61.89,138.24,138.24V1841.18z"/><path fill="#2e0f3e" d="M2503.88,1401.69L2503.88,1401.69c31.01,4.31,60.49-38.71,65-64.73h-90.15c-13.86,0-27.24,2.05-39.86,5.84
			l0.12,0.46C2448.96,1381.43,2472.62,1402.66,2503.88,1401.69z"/><path fill="#fcbf7f" d="M2516.86,1386.18L2516.86,1386.18c-26.63,7.48-54.27-8.04-61.75-34.67l-23.54-68.87
			c-7.48-26.63,8.04-54.27,34.67-61.75l0,0c26.63-7.48,54.27,8.04,61.75,34.67l23.54,68.87
			C2559.01,1351.06,2543.49,1378.7,2516.86,1386.18z"/><path fill="#eaeaea" d="M2591.06,1332.2l-27.36-1.44c-13.88,17.48-31.77,57.48-46.58,119.14c-16.99,70.71-11.27,307.14-5.61,414.89
					c0.78,14.8,13,26.39,27.82,26.39h162.11c15.39,0,27.86-12.47,27.86-27.86v-388.11
					C2729.29,1398.86,2667.41,1332.2,2591.06,1332.2z"/><path fill="#eaeaea" d="M2463.61,1481.24c-1.36-53.66-11.47-111.51-18-144.27c-60.89,14.46-105.12,72.93-105.12,138.24v398.1
			c0,9.87,8,17.87,17.87,17.87h87.88c9.84,0,17.82-7.94,17.87-17.78C2464.58,1770.65,2465.03,1537.42,2463.61,1481.24z"/><circle cx="2407.33" cy="1171.55" r="38.31" fill="#2e0f3e"/><path fill="#fcbf7f" d="M2466.58,1323.13L2466.58,1323.13c-45.25-1.2-80.97-38.85-79.77-84.1l1.32-49.87
				c1.2-45.25,38.85-80.97,84.1-79.77h0c45.25,1.2,80.97,38.85,79.77,84.1l-1.32,49.87
				C2549.48,1288.61,2511.83,1324.32,2466.58,1323.13z"/><path fill="#2e0f3e" d="M2419.54,1261.27c-4.32,0-7.75-1.65-9.6-4.72c-1.93-3.19-1.71-7.44,0.54-10.58
				c2.49-3.47,6.86-4.9,11.69-3.83c1.83,0.41,2.71-0.14,3.28-0.67c3.66-3.41,3.38-15.83,2.35-22.87c-0.2-1.37,0.74-2.64,2.11-2.84
				c1.37-0.2,2.64,0.74,2.84,2.11c0.31,2.13,2.88,20.96-3.89,27.26c-1.43,1.33-3.94,2.74-7.77,1.89c-2.9-0.64-5.22,0.02-6.55,1.87
				c-1.1,1.54-1.24,3.58-0.33,5.08c1.15,1.89,3.72,2.66,7.26,2.16c1.37-0.19,2.63,0.76,2.83,2.13c0.19,1.37-0.76,2.63-2.13,2.83
				C2421.27,1261.2,2420.39,1261.27,2419.54,1261.27z"/><circle cx="2407.33" cy="1213.54" r="3.8" fill="#2e0f3e"/><circle cx="2454.89" cy="1213.54" r="3.8" fill="#2e0f3e"/><path fill="#2e0f3e" d="M2419.37,1199.66c-0.49,0-0.99-0.14-1.42-0.44c-10.67-7.39-19.17-0.45-19.52-0.15
				c-1.05,0.88-2.63,0.76-3.52-0.29c-0.89-1.05-0.77-2.62,0.27-3.51c3.99-3.42,14.48-7.86,25.61-0.16c1.14,0.79,1.42,2.34,0.63,3.48
				C2420.94,1199.28,2420.16,1199.66,2419.37,1199.66z"/><path fill="#2e0f3e" d="M2469.96,1199.66c-0.49,0-0.99-0.14-1.42-0.44c-10.67-7.39-19.16-0.45-19.52-0.15
				c-1.05,0.88-2.63,0.76-3.52-0.29c-0.89-1.05-0.77-2.62,0.27-3.51c3.99-3.42,14.49-7.86,25.61-0.16c1.14,0.79,1.42,2.34,0.63,3.48
				C2471.54,1199.28,2470.76,1199.66,2469.96,1199.66z"/><circle cx="2469.92" cy="1253.52" r="20.32" fill="#f19078"/><path fill="#f19078" d="M2404.86,1259.53c3.32-10.72-2.68-22.1-13.4-25.42c-1.5-0.46-3-0.73-4.5-0.84l-0.15,5.75
				c-0.31,11.82,1.91,23.1,6.14,33.37C2398.46,1270.2,2402.97,1265.64,2404.86,1259.53z"/><path fill="#2e0f3e" d="M2438.09,1276.29c-4.62,0-7.83-1.02-7.9-1.04c-1.31-0.43-2.02-1.85-1.59-3.16c0.43-1.31,1.84-2.02,3.15-1.59
				c0.67,0.22,16,4.95,26.45-10.09c0.79-1.13,2.34-1.41,3.48-0.63c1.13,0.79,1.41,2.35,0.63,3.48
				C2454.78,1274.09,2444.9,1276.29,2438.09,1276.29z"/><circle cx="2546.1" cy="1216.84" r="25.16" fill="#fcbf7f"/><path fill="#2e0f3e" d="M2552.58,1226.54c-1.22,0-2.29-0.9-2.47-2.15c-0.09-0.61-0.32-1-0.79-1.3c-1.65-1.08-5.24-0.78-7.63-0.32
					c-0.52,0.14-1.06,0.27-1.63,0.37c-1.32,0.24-2.58-0.6-2.88-1.9s0.48-2.61,1.77-2.96c0.2-0.06,0.76-0.2,1.56-0.37
					c8.72-2.59,7.72-13.52,7.67-14.01c-0.14-1.37,0.86-2.6,2.24-2.74c1.38-0.14,2.6,0.86,2.74,2.24c0.38,3.76-0.28,9.87-3.82,14.37
					c0.98,0.24,1.91,0.61,2.73,1.15c1.67,1.09,2.71,2.75,3,4.78c0.2,1.37-0.75,2.63-2.12,2.83
					C2552.82,1226.53,2552.7,1226.54,2552.58,1226.54z"/><circle cx="2421.83" cy="1122.24" r="56.7" fill="#2e0f3e"/><circle cx="2486.06" cy="1133.24" r="38.31" fill="#2e0f3e"/><circle cx="2529.29" cy="1159.43" r="38.31" fill="#2e0f3e"/><circle cx="2520.93" cy="1197.74" r="22.8" fill="#2e0f3e"/><circle cx="2520.93" cy="1223.26" r="12.62" fill="#2e0f3e"/><path fill="#2e0f3e" d="M2467.05,1326.08c-13.41,0-21.99-4.38-22.14-4.46c-0.73-0.39-1.01-1.29-0.63-2.03s1.29-1.01,2.02-0.63l0,0
				c0.26,0.14,26.31,13.32,58.67-8.2c0.69-0.46,1.62-0.27,2.08,0.42s0.27,1.62-0.42,2.08
				C2491.58,1323.28,2477.77,1326.08,2467.05,1326.08z"/><path fill="#bfbfbf" d="M2340.49,1530.88c-1.28,0-2.37-0.97-2.49-2.27c-7.52-80.49,20.33-126.32,21.52-128.23
			c0.73-1.17,2.27-1.53,3.44-0.8c1.17,0.73,1.53,2.27,0.81,3.44c-0.28,0.46-28.14,46.44-20.79,125.13c0.13,1.37-0.88,2.59-2.26,2.72
			C2340.65,1530.87,2340.57,1530.88,2340.49,1530.88z"/><path fill="#bfbfbf" d="M2454.89,1608.81c-1.14,0-2.17-0.78-2.43-1.94l-35.52-153.17c-0.1-0.45-0.08-0.92,0.06-1.35l14.21-42.74
			l-24.43-5.48c-0.76-0.17-1.4-0.68-1.72-1.39s-0.31-1.52,0.06-2.21l22.37-42.52c0.64-1.22,2.16-1.69,3.38-1.05
			c1.22,0.64,1.69,2.15,1.05,3.38l-20.85,39.63l23.94,5.37c0.69,0.15,1.28,0.59,1.63,1.21c0.35,0.62,0.42,1.35,0.2,2.02
			l-14.86,44.69l35.36,152.49c0.31,1.34-0.53,2.69-1.87,3C2455.26,1608.79,2455.07,1608.81,2454.89,1608.81z"/><path fill="#bfbfbf" d="M2519.51,1588.2c-0.26,0-0.53-0.04-0.8-0.13c-1.31-0.44-2.01-1.86-1.57-3.17l46.59-138.11l-19.91-44.07
			c-0.29-0.64-0.3-1.37-0.02-2.01c0.27-0.64,0.8-1.14,1.46-1.38l38.08-13.53l-16.75-37.49c-0.56-1.26,0-2.74,1.26-3.3
			c1.26-0.56,2.74,0,3.3,1.26l17.85,39.96c0.29,0.64,0.29,1.36,0.02,2c-0.27,0.64-0.8,1.14-1.46,1.37l-38.07,13.53l19.2,42.49
			c0.26,0.58,0.29,1.23,0.09,1.83l-46.91,139.04C2521.53,1587.54,2520.55,1588.2,2519.51,1588.2z"/><path fill="#bfbfbf" d="M2594.29,1862.8c-1.38,0-2.5-1.12-2.5-2.5s1.12-2.5,2.5-2.5c38.12,0,44.46-26.29,45.02-29.06v-41.54h-70.43
			c-1.38,0-2.5-1.12-2.5-2.5s1.12-2.5,2.5-2.5h72.93c1.38,0,2.5,1.12,2.5,2.5v44.28c0,0.14-0.01,0.28-0.04,0.42
			C2644.22,1829.74,2638.01,1862.8,2594.29,1862.8z"/><path fill="#bfbfbf" d="M2359.81,1862.8c-1.38,0-2.5-1.12-2.5-2.5s1.12-2.5,2.5-2.5c38.12,0,44.46-26.29,45.02-29.06v-41.54h-43.18
			c-1.38,0-2.5-1.12-2.5-2.5s1.12-2.5,2.5-2.5h45.68c1.38,0,2.5,1.12,2.5,2.5v44.28c0,0.14-0.01,0.28-0.04,0.42
			C2409.73,1829.74,2403.53,1862.8,2359.81,1862.8z"/><path fill="#4287c7" d="M2555.66,1764.88l-119.78-61.79c-8.98-4.63-12.5-15.67-7.87-24.64l98.51-190.96
				c4.63-8.98,15.67-12.5,24.64-7.87l119.78,61.79c8.98,4.63,12.5,15.67,7.87,24.64l-98.51,190.96
				C2575.67,1765.99,2564.64,1769.51,2555.66,1764.88z"/><path fill="#2e0f3e" d="M2637.21,1542.26l-67.18-34.66c-1.99-1.03-2.78-3.48-1.75-5.47l5.96-11.55c1.03-1.99,3.48-2.78,5.47-1.75
				l67.18,34.66c1.99,1.03,2.78,3.48,1.75,5.47l-5.96,11.55C2641.65,1542.51,2639.2,1543.29,2637.21,1542.26z"/><rect width="79.2" height="103.07" x="2475.46" y="1556.17" fill="#fcbf7f" transform="rotate(-56.613 2514.856 1607.646)"/><path fill="#fcbf7f" d="M2495.46,1554.1c0,0-7.44-21.64,4.63-33.85c16.35-16.54,28.48,55.68,28.48,55.68L2495.46,1554.1z"/><path fill="#fcbf7f" d="M2468.48,1622.97c0,0-23.72-10.56-26.27-18.21c-2.4-7.2,8.18-11.89,8.18-11.89s-5.9-4.45-0.81-12.64
				c2.9-4.67,9.82-5.36,9.82-5.36s-4.45-7.08,0.86-12.46s11.9-4.75,11.9-4.75s-5.3-6.92,2.99-14.72c8.28-7.79,33.02,5.03,33.02,5.03
				S2531.18,1618.25,2468.48,1622.97z"/><path fill="#eaeaea" d="M2733.62,1763.92c-40.05,0-89.17-15.44-148.92-46.69c-51.53-26.95-92.59-56.25-94.31-57.49l58.24-81.29
			c0.4,0.29,42.66,30.37,91.92,55.03c27.2,13.62,50.91,22.84,70.46,27.4c21.58,5.03,30.06,2.5,31.69,1.87
			c0.11-0.18,0.26-0.45,0.43-0.83c7.13-15.37-2.13-56.75-51.69-122.8c-39.39-52.5-84.24-94.24-84.69-94.66l50.82-54.84
			c9.52-10.27,25.66-10.52,35.52-0.58c18.97,19.15,49.71,51.9,78.34,90.06c27.45,36.58,47.48,70.9,59.52,102.01
			c18.09,46.7,19.06,88.04,2.9,122.89c-13.22,28.5-36.33,47.8-66.83,55.83C2756.66,1762.55,2745.54,1763.92,2733.62,1763.92z"/><path fill="#bfbfbf" d="M2715.66,1769.93c-49.49,0-112.21-37.13-115.11-38.86c-1.18-0.71-1.57-2.24-0.86-3.43
			c0.71-1.18,2.24-1.57,3.43-0.86c0.76,0.46,76.86,45.51,125.75,37.1c1.37-0.23,2.65,0.68,2.89,2.04c0.23,1.36-0.68,2.65-2.04,2.89
			C2725.21,1769.58,2720.49,1769.93,2715.66,1769.93z"/><path fill="#bfbfbf" d="M2729.29,1599.28c-0.91,0-1.78-0.49-2.22-1.35c-32.9-63.68-110.46-137.92-111.24-138.66
			c-1-0.95-1.04-2.53-0.09-3.53c0.95-1,2.54-1.04,3.53-0.09c0.79,0.75,78.95,75.56,112.24,139.98c0.63,1.23,0.15,2.73-1.07,3.37
			C2730.07,1599.19,2729.68,1599.28,2729.29,1599.28z"/><g><rect width="79.2" height="103.07" x="1519.92" y="1377.53" fill="#fcbf7f" transform="rotate(-107.879 1559.52 1429.08)"/><path fill="#fcbf7f" d="M1598.3,1455.54c0,0,53.35-5.91,57.33-16.27s-11.49-11.42-11.49-11.42s30.16-3.43,28.46-15.74
					c-1.7-12.31-14.11-8.56-14.11-8.56s18.23-1.34,16.31-14.34c-1.92-13-21.57-5.9-21.57-5.9s11.78-2.32,9.9-11.52
					c-4.22-20.7-80.01,8.49-80.01,8.49L1598.3,1455.54z"/><path fill="#fcbf7f" d="M1592.73,1382.66c0,0,12.95-18.86,4.59-33.86c-11.33-20.31-42.33,46.04-42.33,46.04L1592.73,1382.66z"/><line x1="1623.73" x2="1650.93" y1="1391.12" y2="1385.1" fill="#fff"/><path fill="#2e0f3e" d="M1623.73,1392.62c-0.69,0-1.31-0.48-1.46-1.18c-0.18-0.81,0.33-1.61,1.14-1.79l27.2-6.02
						c0.82-0.18,1.61,0.33,1.79,1.14c0.18,0.81-0.33,1.61-1.14,1.79l-27.2,6.01C1623.95,1392.61,1623.84,1392.62,1623.73,1392.62z"/><line x1="1629.09" x2="1656.28" y1="1408.55" y2="1402.53" fill="#fff"/><path fill="#2e0f3e" d="M1629.09,1410.05c-0.69,0-1.31-0.48-1.46-1.18c-0.18-0.81,0.33-1.61,1.14-1.79l27.2-6.01
						c0.82-0.18,1.61,0.33,1.79,1.14c0.18,0.81-0.33,1.61-1.14,1.79l-27.2,6.01C1629.3,1410.04,1629.19,1410.05,1629.09,1410.05z"/><line x1="1624.22" x2="1641.64" y1="1432.54" y2="1427.87" fill="#fff"/><path fill="#2e0f3e" d="M1624.22,1434.04c-0.66,0-1.27-0.44-1.45-1.11c-0.21-0.8,0.26-1.62,1.06-1.84l17.42-4.68
						c0.8-0.21,1.62,0.26,1.84,1.06c0.21,0.8-0.26,1.62-1.06,1.84l-17.42,4.68C1624.48,1434.03,1624.35,1434.04,1624.22,1434.04z"/><path fill="#2e0f3e" d="M1574.1,1420.95c-0.7,0-1.33-0.49-1.47-1.2c-0.16-0.81,0.36-1.6,1.17-1.77
					c21.74-4.38,17.98-25.86,17.81-26.78c-0.15-0.81,0.38-1.6,1.2-1.75c0.81-0.15,1.6,0.38,1.75,1.19
					c0.05,0.25,4.51,25.31-20.17,30.28C1574.29,1420.94,1574.19,1420.95,1574.1,1420.95z"/><path fill="#a82277" d="M1560.52,1478.62l-7.45,1.73c-7.59,1.76-15.17-2.97-16.93-10.55l-15.46-66.67
				c-1.76-7.59,2.97-15.17,10.55-16.93l7.45-1.73c7.59-1.76,15.17,2.97,16.93,10.55l15.46,66.67
				C1572.83,1469.28,1568.11,1476.86,1560.52,1478.62z"/><path fill="#de4298" d="M1327.13,1507.02c-46.04,0-94.41-2.54-144.93-7.62c-69.44-6.98-124.9-17.1-153.97-23.03
				c-12.17-2.48-19.86-14.56-16.98-26.64l17.99-75.44l-11.6,48.64l6.6-27.74c2.74-11.52,14.11-18.81,25.72-16.47
				c27.32,5.51,79.49,14.94,143.8,21.34c114.6,11.4,219.77,8.46,305.88-8.45c11.64-2.29,23,5.05,25.67,16.61l12.64,54.63
				c2.79,12.07-4.93,24.09-17.08,26.52C1462.09,1501.13,1397.31,1507.02,1327.13,1507.02z"/><path fill="#de4298" d="M757.75,1851.69h296.37c25.52,0,46.21-20.69,46.21-46.21v-319.76c0-76.35-61.89-138.24-138.24-138.24h-75.99
			c-96.41,0-174.57,78.16-174.57,174.57v283.42C711.54,1831,732.23,1851.69,757.75,1851.69z"/><path fill="#a82277" d="M936.96,1412.21L936.96,1412.21c-50.36,1.36-60.49-38.71-65-64.73h90.15c13.86,0,27.24,2.05,39.86,5.84
			l-0.12,0.46C991.87,1391.95,968.21,1413.17,936.96,1412.21z"/><path fill="#fcbf7f" d="M923.97,1396.69L923.97,1396.69c26.63,7.48,54.27-8.04,61.75-34.67l23.54-68.87
			c7.48-26.63-8.04-54.27-34.67-61.75h0c-26.63-7.48-54.27,8.04-61.75,34.67l-23.54,68.87
			C881.82,1361.57,897.34,1389.21,923.97,1396.69z"/><path fill="#775fa9" d="M1058.03,1156.37c0,0,29.8,53.67-9.61,60.3l-29.55-39.11L1058.03,1156.37z"/><path fill="#fcbf7f" d="M975.21,1335.08L975.21,1335.08c45.25-1.2,80.97-38.85,79.77-84.1l-1.32-49.87
				c-1.2-45.25-38.85-80.97-84.1-79.77h0c-45.25,1.2-80.97,38.85-79.77,84.1l1.32,49.87
				C892.31,1300.56,929.96,1336.28,975.21,1335.08z"/><path fill="#2e0f3e" d="M1021.29,1271.78c-0.85,0-1.72-0.06-2.63-0.19c-1.37-0.19-2.32-1.46-2.13-2.83
				c0.19-1.37,1.45-2.31,2.83-2.13c3.53,0.5,6.11-0.27,7.26-2.16c0.91-1.5,0.78-3.54-0.33-5.08c-1.33-1.85-3.65-2.51-6.55-1.87
				c-3.83,0.85-6.34-0.56-7.77-1.89c-6.77-6.29-4.2-25.13-3.89-27.26c0.2-1.37,1.48-2.31,2.84-2.11c1.37,0.2,2.31,1.47,2.11,2.84
				c-1.04,7.03-1.31,19.46,2.35,22.87c0.56,0.52,1.44,1.07,3.28,0.67c4.83-1.07,9.2,0.36,11.69,3.83c2.26,3.14,2.47,7.4,0.54,10.58
				C1029.03,1270.13,1025.61,1271.78,1021.29,1271.78z"/><path fill="#2e0f3e" d="M1021.47,1200.17c-0.79,0-1.57-0.38-2.06-1.08c-0.79-1.14-0.5-2.69,0.63-3.48
				c11.13-7.7,21.62-3.27,25.61,0.16c1.05,0.9,1.17,2.48,0.27,3.52c-0.9,1.05-2.47,1.17-3.52,0.28c-0.38-0.32-8.86-7.23-19.52,0.15
				C1022.45,1200.03,1021.96,1200.17,1021.47,1200.17z"/><path fill="#2e0f3e" d="M970.87,1200.17c-0.79,0-1.57-0.38-2.06-1.08c-0.79-1.14-0.5-2.69,0.63-3.48
				c11.13-7.7,21.62-3.27,25.61,0.16c1.05,0.9,1.17,2.48,0.27,3.52c-0.9,1.05-2.47,1.17-3.52,0.28c-0.38-0.32-8.86-7.23-19.52,0.15
				C971.85,1200.03,971.36,1200.17,970.87,1200.17z"/><circle cx="970.91" cy="1264.04" r="20.32" fill="#f19078"/><path fill="#f19078" d="M1035.97,1270.04c-3.32-10.72,2.68-22.1,13.4-25.42c1.5-0.46,3-0.73,4.5-0.84l0.15,5.75
				c0.31,11.82-1.91,23.1-6.14,33.37C1042.37,1280.71,1037.86,1276.15,1035.97,1270.04z"/><circle cx="894.73" cy="1227.35" r="25.16" fill="#fcbf7f"/><path fill="#2e0f3e" d="M888.25,1237.05c-0.12,0-0.24-0.01-0.36-0.03c-1.37-0.2-2.32-1.46-2.12-2.83c0.29-2.03,1.33-3.69,3.01-4.78
					c0.82-0.53,1.75-0.9,2.73-1.15c-3.55-4.5-4.2-10.61-3.82-14.37c0.14-1.37,1.36-2.38,2.74-2.24c1.37,0.14,2.37,1.36,2.24,2.73
					l0,0c-0.05,0.49-0.99,11.44,7.68,14.02c0.79,0.16,1.35,0.31,1.55,0.36c1.29,0.36,2.07,1.66,1.77,2.96
					c-0.3,1.3-1.57,2.14-2.88,1.9c-0.57-0.1-1.11-0.23-1.63-0.37c-2.39-0.46-5.98-0.76-7.63,0.32c-0.47,0.31-0.7,0.69-0.79,1.3
					C890.54,1236.15,889.47,1237.05,888.25,1237.05z"/><path fill="#2e0f3e" d="M973.78,1336.59c-10.72,0-24.53-2.79-39.59-12.81c-0.69-0.46-0.88-1.39-0.42-2.08
				c0.46-0.69,1.39-0.88,2.08-0.42c32.37,21.52,58.42,8.34,58.68,8.2c0.73-0.38,1.64-0.1,2.02,0.63c0.38,0.73,0.1,1.64-0.63,2.02
				C995.77,1332.22,987.19,1336.59,973.78,1336.59z"/><circle cx="1040.05" cy="1227.15" r="23.01" fill="#fff"/><path fill="#2e0f3e" d="M1040.05,1252.66c-14.07,0-25.51-11.44-25.51-25.51c0-14.07,11.44-25.51,25.51-25.51
						c14.07,0,25.51,11.44,25.51,25.51C1065.56,1241.21,1054.11,1252.66,1040.05,1252.66z M1040.05,1206.64
						c-11.31,0-20.51,9.2-20.51,20.51c0,11.31,9.2,20.51,20.51,20.51c11.31,0,20.51-9.2,20.51-20.51
						C1060.56,1215.84,1051.36,1206.64,1040.05,1206.64z"/><line x1="1017.04" x2="911.32" y1="1227.15" y2="1227.15" fill="#fff"/><path fill="#2e0f3e" d="M1017.04,1229.65H911.32c-1.38,0-2.5-1.12-2.5-2.5s1.12-2.5,2.5-2.5h105.72c1.38,0,2.5,1.12,2.5,2.5
						S1018.42,1229.65,1017.04,1229.65z"/><circle cx="982.63" cy="1227.15" r="23.01" fill="#fff"/><path fill="#2e0f3e" d="M982.63,1252.66c-14.07,0-25.51-11.44-25.51-25.51c0-14.07,11.44-25.51,25.51-25.51
						c14.07,0,25.51,11.44,25.51,25.51C1008.14,1241.21,996.7,1252.66,982.63,1252.66z M982.63,1206.64
						c-11.31,0-20.51,9.2-20.51,20.51c0,11.31,9.2,20.51,20.51,20.51c11.31,0,20.51-9.2,20.51-20.51
						C1003.14,1215.84,993.94,1206.64,982.63,1206.64z"/><circle cx="1033.51" cy="1224.05" r="3.8" fill="#2e0f3e"/><circle cx="985.94" cy="1224.05" r="3.8" fill="#2e0f3e"/><path fill="#fff" d="M988.61,1274.36c5.72,2.66,16.05,6.33,28.97,5.92c5.67-0.18,7.92,7.35,3.09,10.33
					c-5.2,3.22-12.74,5.67-23.52,5.14c-18.77-0.92-18.45-11.35-16.18-18.16C982.02,1274.44,985.61,1272.96,988.61,1274.36z"/><path fill="#2e0f3e" d="M1000.04,1298.32c-0.99,0-1.99-0.02-3.01-0.07c-8.6-0.42-14.48-2.84-17.46-7.21
					c-2.52-3.68-2.85-8.61-0.97-14.25c0.72-2.15,2.33-3.9,4.42-4.8c2.12-0.91,4.54-0.88,6.64,0.1c6.03,2.81,15.76,6.07,27.84,5.68
					c3.71-0.13,6.88,2.19,7.95,5.74c1.08,3.57-0.32,7.27-3.47,9.22C1015.99,1296.45,1008.62,1298.32,1000.04,1298.32z
					 M986.23,1276.33c-0.42,0-0.84,0.08-1.23,0.25c-0.8,0.34-1.38,0.98-1.65,1.79c-0.95,2.86-1.67,6.89,0.35,9.84
					c2.05,3,6.62,4.69,13.58,5.03c8.84,0.44,16.27-1.17,22.08-4.77c1.47-0.91,1.64-2.42,1.31-3.52c-0.33-1.09-1.28-2.23-3.01-2.19
					c-13.07,0.42-23.59-3.11-30.11-6.15c0,0,0,0,0,0C987.14,1276.43,986.68,1276.33,986.23,1276.33z"/><path fill="#775fa9" d="M902.92,1133.73c0,0,3.84-25.44,60.48-17.28c56.64,8.16,64.8-22.56,72-23.52c7.2-0.96,7.08,6.72,7.08,6.72
				s7.32-3.36,15.96-2.4c8.64,0.96,6.36,13.2,6.36,13.2s6.72-1.8,14.4,3.96c7.68,5.76-3.48,64.92-57.72,66.36
				c-54.24,1.44-85.44-13.92-85.44-13.92s23.04,33.12-11.04,38.4l-1.44,43.2l-14.4-0.48c0,0,4.08-56.4-26.64-42.44
				c0,0-14.61-15.85-10.32-41.08C876.04,1141.89,890.44,1132.77,902.92,1133.73z"/><g><rect width="79.2" height="103.07" x="262.3" y="1394.52" fill="#fcbf7f" transform="rotate(-74.139 301.914 1446.102)"/><path fill="#fcbf7f" d="M264.08,1473.88c0,0-53.53-4.03-57.87-14.24s11.08-11.82,11.08-11.82s-30.27-2.36-29-14.73
					c1.27-12.36,13.8-9.05,13.8-9.05s-18.26-0.7-16.8-13.76c1.46-13.06,21.35-6.66,21.35-6.66s-11.85-1.9-10.3-11.16
					c3.49-20.83,80.26,5.66,80.26,5.66L264.08,1473.88z"/><path fill="#fcbf7f" d="M267.07,1400.84c0,0-13.61-18.4-5.78-33.68c10.61-20.7,43.93,44.52,43.93,44.52L267.07,1400.84z"/><line x1="236.39" x2="209" y1="1410.39" y2="1405.34" fill="#fff"/><path fill="#2e0f3e" d="M236.39,1411.89c-0.09,0-0.18-0.01-0.27-0.03l-27.39-5.05c-0.81-0.15-1.35-0.93-1.2-1.75
						c0.15-0.81,0.93-1.36,1.75-1.2l27.39,5.05c0.81,0.15,1.35,0.93,1.2,1.75C237.73,1411.38,237.1,1411.89,236.39,1411.89z"/><line x1="231.65" x2="204.26" y1="1428" y2="1422.95" fill="#fff"/><path fill="#2e0f3e" d="M231.65,1429.5c-0.09,0-0.18-0.01-0.27-0.03l-27.39-5.05c-0.81-0.15-1.35-0.93-1.2-1.75
						c0.15-0.81,0.94-1.36,1.75-1.2l27.39,5.05c0.81,0.15,1.35,0.93,1.2,1.75C232.99,1428.99,232.36,1429.5,231.65,1429.5z"/><line x1="237.37" x2="219.79" y1="1451.81" y2="1447.75" fill="#fff"/><path fill="#2e0f3e" d="M237.37,1453.31c-0.11,0-0.23-0.01-0.34-0.04l-17.58-4.06c-0.81-0.19-1.31-0.99-1.12-1.8
						c0.19-0.81,0.99-1.31,1.8-1.12l17.58,4.06c0.81,0.19,1.31,0.99,1.12,1.8C238.67,1452.84,238.05,1453.31,237.37,1453.31z"/><path fill="#2e0f3e" d="M287,1438.45c-0.08,0-0.16-0.01-0.25-0.02c-24.83-4.1-21.26-29.29-21.22-29.55
					c0.12-0.82,0.89-1.38,1.71-1.25c0.82,0.12,1.38,0.89,1.26,1.71c-0.14,0.92-3.14,22.52,18.74,26.13
					c0.82,0.13,1.37,0.91,1.24,1.72C288.35,1437.93,287.72,1438.45,287,1438.45z"/><path fill="#a82277" d="M302.65,1495.62l7.5,1.46c7.65,1.49,15.05-3.5,16.55-11.14l13.1-67.18c1.49-7.65-3.5-15.05-11.14-16.55
				l-7.5-1.46c-7.65-1.49-15.05,3.5-16.55,11.14l-13.1,67.18C290.01,1486.72,295,1494.12,302.65,1495.62z"/><path fill="#de4298" d="M536.9,1515.78c46.01-1.62,94.26-5.86,144.57-12.71c69.15-9.42,124.22-21.49,153.07-28.44
				c12.08-2.91,19.34-15.25,16.03-27.22l-20.64-74.76l13.3,48.2l-7.57-27.49c-3.15-11.42-14.76-18.3-26.28-15.55
				c-27.11,6.46-78.92,17.73-142.96,26.39c-114.13,15.43-219.34,16.19-305.99,2.33c-11.72-1.87-22.81,5.85-25.07,17.5l-10.71,55.04
				c-2.37,12.16,5.77,23.9,18,25.9C401.81,1514.64,466.76,1518.25,536.9,1515.78z"/></g><path fill="#a82277" d="M1100.34,1488.22c-0.01,0-0.02,0-0.02,0c-1.38-0.01-2.49-1.14-2.48-2.52c0.6-62.61-48.75-98.17-49.24-98.53
			c-1.13-0.8-1.4-2.36-0.6-3.48c0.8-1.13,2.36-1.4,3.48-0.6c0.53,0.38,13.21,9.42,25.95,26.61c11.77,15.88,25.74,41.96,25.41,76.05
			C1102.83,1487.12,1101.71,1488.22,1100.34,1488.22z"/><path fill="#a82277" d="M682.84,1506.43c-1.27,0-2.36-0.97-2.49-2.26c-0.13-1.37,0.87-2.6,2.25-2.73c0.9-0.09,90.8-9.05,129.74-29.96
			c1.21-0.65,2.73-0.2,3.39,1.02c0.65,1.22,0.2,2.73-1.02,3.39c-39.82,21.38-127.89,30.16-131.62,30.53
			C683,1506.42,682.92,1506.43,682.84,1506.43z"/></g><g><path fill="#bae3e5" d="M1719.05,1203.7c0,3.66-2.96,6.62-6.62,6.62h0c-3.66,0-6.62-2.96-6.62-6.62V1078.9
			c0-3.66,2.96-6.62,6.62-6.62h0c3.66,0,6.62,2.96,6.62,6.62"/><circle cx="1712.43" cy="1040.8" r="13.67" fill="#bae3e5"/><path fill="#775fa9" d="M1544,1531.33c40.42-61.33,118.35-81.28,174.06-44.57c55.71,36.72,68.1,116.2,27.68,177.53
			s-168.58,212.02-249.34,158.78C1416.33,1770.3,1503.58,1592.66,1544,1531.33z"/><path fill="#f2c225" d="M1709.12,1481.46c-2.96-1.58-5.98-3.01-9.03-4.3c-22.47,44.32-68.49,74.77-121.49,74.77
			c-15.08,0-29.58-2.47-43.15-7.01c-1.69,2.8-3.42,5.73-5.19,8.79c15.14,5.32,31.4,8.23,48.34,8.23
			C1635.58,1561.93,1685.03,1529.15,1709.12,1481.46z"/><path fill="#bae3e5" d="M2134.27,1797.06c0,146.58-139.02,265.4-310.5,265.4s-310.5-118.83-310.5-265.4s139.02-399.44,310.5-399.44
			S2134.27,1650.48,2134.27,1797.06z"/><ellipse cx="1803.31" cy="1256.29" fill="#bae3e5" rx="140.82" ry="121.38"/><path fill="#775fa9" d="M1867.27,1146.51c-16.18,12.12-26.66,31.44-26.66,53.21c0,36.69,29.74,66.43,66.43,66.43
			c13.73,0,26.49-4.17,37.08-11.31c0-0.06,0-0.11,0-0.17C1944.13,1207.49,1912.89,1166.59,1867.27,1146.51z"/><path fill="#80c1c1" d="M1805.71,1277.75h-86.66c-15.62,0-28.28-12.66-28.28-28.28l0,0c0-15.62,12.66-28.28,28.28-28.28h86.66
			c15.62,0,28.28,12.66,28.28,28.28l0,0C1834,1265.09,1821.33,1277.75,1805.71,1277.75z"/><path fill="#bae3e5" d="M1924.23,1210.32L1924.23,1210.32c-3.66,0-6.62-2.96-6.62-6.62V1078.9c0-3.66,2.96-6.62,6.62-6.62l0,0
			c3.66,0,6.62,2.96,6.62,6.62v124.79C1930.85,1207.35,1927.89,1210.32,1924.23,1210.32z"/><circle cx="1913.23" cy="1206.32" r="31.29" fill="#bae3e5"/><path fill="#775fa9" d="M1797.29,1266.89h-86.66c-15.62,0-28.28-12.66-28.28-28.28l0,0c0-15.62,12.66-28.28,28.28-28.28h86.66
			c15.62,0,28.28,12.66,28.28,28.28l0,0C1825.57,1254.22,1812.91,1266.89,1797.29,1266.89z"/><path fill="#f0efef" d="M1718.76,1249.23h-9.64c-4.37,0-7.92-3.55-7.92-7.92v-9.64c0-4.37,3.55-7.92,7.92-7.92h9.64
			c4.37,0,7.92,3.55,7.92,7.92v9.64C1726.68,1245.69,1723.13,1249.23,1718.76,1249.23z"/><path fill="#f0efef" d="M1797.79,1249.23h-9.64c-4.37,0-7.92-3.55-7.92-7.92v-9.64c0-4.37,3.55-7.92,7.92-7.92h9.64
			c4.37,0,7.92,3.55,7.92,7.92v9.64C1805.71,1245.69,1802.17,1249.23,1797.79,1249.23z"/><circle cx="1924.23" cy="1040.8" r="13.67" fill="#bae3e5"/><path fill="#775fa9" d="M1707.47,1437.52c31.52,18.57,68.26,29.24,107.5,29.24c43.8,0,84.48-13.29,118.27-36.03
			c-33.54-20.78-69.81-33.11-107.67-33.11C1783.76,1397.62,1743.88,1412.66,1707.47,1437.52z"/><path fill="#80c1c1" d="M1852.05,1853.05h-201.31c-36.12,0-65.39-29.28-65.39-65.39v-96.67c0-36.12,29.28-65.39,65.39-65.39h201.31
				c36.12,0,65.39,29.28,65.39,65.39v96.67C1917.45,1823.77,1888.17,1853.05,1852.05,1853.05z"/><path fill="#f0efef" d="M1836.6,1837.6h-201.31c-36.12,0-65.39-29.28-65.39-65.39v-96.67c0-36.12,29.28-65.39,65.39-65.39h201.31
				c36.12,0,65.39,29.28,65.39,65.39v96.67C1901.99,1808.32,1872.72,1837.6,1836.6,1837.6z"/><path fill="#2e0f3e" d="M1716.72,1689.52c-3.41,0-5.8-4.81-9.42-12.65c-1.69-3.67-4.51-9.79-5.96-10.4
				c-1.08,0.21-3.44,4.22-4.59,6.17c-2.45,4.15-4.76,8.08-7.97,8.08c-3.56,0-5.59-5.46-8.88-15.11c-1.35-3.96-3.51-10.32-4.99-12.12
				c-1.36,2.45-3.2,10.67-4.46,16.29c-3.27,14.58-4.71,19.68-8,19.68c-3.35,0-5.36-4.26-7.92-9.66c-2.22-4.69-5.26-11.11-8.37-11.11
				c-2.21,0-4.6,2.72-6.91,5.36c-2.88,3.28-5.85,6.67-9.81,6.67h-19.84c-1.07,0-1.93-0.86-1.93-1.93s0.86-1.93,1.93-1.93h19.84
				c2.21,0,4.6-2.72,6.91-5.36c2.88-3.28,5.85-6.67,9.81-6.67c5.56,0,8.91,7.08,11.86,13.32c1.13,2.4,2.95,6.24,4.1,7.23
				c1.36-2.23,3.26-10.7,4.55-16.45c3.27-14.58,4.71-19.68,8-19.68c3.56,0,5.59,5.46,8.88,15.11c1.46,4.29,3.88,11.39,5.34,12.47
				c1.11-0.37,3.4-4.25,4.52-6.15c2.45-4.15,4.76-8.08,7.97-8.08c3.41,0,5.8,4.81,9.42,12.65c1.7,3.68,4.53,9.82,5.97,10.41
				c1.95-0.16,6.4-7.98,8.09-10.94c2.79-4.9,3.83-6.73,5.67-6.73c2.71,0,4.84,2.16,7.1,4.44c2.15,2.18,4.38,4.43,6.77,4.43h17.89
				c1.07,0,1.93,0.86,1.93,1.93s-0.86,1.93-1.93,1.93h-17.89c-4,0-6.93-2.96-9.51-5.58c-1.3-1.32-2.76-2.79-3.84-3.19
				c-0.67,0.88-1.85,2.96-2.83,4.68C1723.92,1684.17,1720.58,1689.52,1716.72,1689.52z"/><circle cx="1825.2" cy="1650.38" r="16.19" fill="#2e0f3e"/><path fill="#2e0f3e" d="M1827.28,1715.71h-4.16c-2.42,0-4.38-1.96-4.38-4.38v-47.91c0-2.42,1.96-4.38,4.38-4.38h4.16
					c2.42,0,4.38,1.96,4.38,4.38v47.91C1831.66,1713.75,1829.7,1715.71,1827.28,1715.71z"/><path fill="#2e0f3e" d="M1826.28,1707.47L1826.28,1707.47c2.02-2.02,5.29-2.02,7.31,0l22.9,22.9c2.02,2.02,2.02,5.29,0,7.31l0,0
						c-2.02,2.02-5.29,2.02-7.31,0l-22.9-22.9C1824.26,1712.77,1824.26,1709.49,1826.28,1707.47z"/><path fill="#2e0f3e" d="M1824.11,1707.47L1824.11,1707.47c2.02,2.02,2.02,5.29,0,7.31l-22.9,22.9c-2.02,2.02-5.29,2.02-7.31,0l0,0
						c-2.02-2.02-2.02-5.29,0-7.31l22.9-22.9C1818.82,1705.45,1822.09,1705.45,1824.11,1707.47z"/><path fill="#2e0f3e" d="M1784.99,1675.16L1784.99,1675.16c0-2.86,2.32-5.17,5.17-5.17h70.07c2.86,0,5.17,2.32,5.17,5.17l0,0
					c0,2.86-2.32,5.17-5.17,5.17h-70.07C1787.31,1680.33,1784.99,1678.02,1784.99,1675.16z"/><path fill="#2e0f3e" d="M1649.43,1815.48h-23.05v-84.73h23.05V1815.48z M1630.24,1811.61h15.33v-77.01h-15.33V1811.61z"/><rect width="19.19" height="53.96" x="1628.31" y="1759.59" fill="#2e0f3e"/><path fill="#2e0f3e" d="M1690.83,1815.48h-23.05v-84.73h23.05V1815.48z M1671.63,1811.61h15.33v-77.01h-15.33V1811.61z"/><rect width="19.19" height="40.44" x="1669.7" y="1773.11" fill="#2e0f3e"/><path fill="#2e0f3e" d="M1731.79,1815.48h-23.05v-84.73h23.05V1815.48z M1712.6,1811.61h15.33v-77.01h-15.33V1811.61z"/><rect width="19.19" height="71.02" x="1710.67" y="1742.53" fill="#2e0f3e"/><path fill="#2e0f3e" d="M1865.47,1755.21h-97.76c-1.07,0-1.93-0.86-1.93-1.93s0.86-1.93,1.93-1.93h97.76c1.07,0,1.93,0.86,1.93,1.93
				S1866.53,1755.21,1865.47,1755.21z"/><path fill="#2e0f3e" d="M1865.47,1770.66h-97.76c-1.07,0-1.93-0.86-1.93-1.93s0.86-1.93,1.93-1.93h97.76c1.07,0,1.93,0.86,1.93,1.93
				S1866.53,1770.66,1865.47,1770.66z"/><path fill="#2e0f3e" d="M1865.47,1786.12h-97.76c-1.07,0-1.93-0.86-1.93-1.93s0.86-1.93,1.93-1.93h97.76c1.07,0,1.93,0.86,1.93,1.93
				S1866.53,1786.12,1865.47,1786.12z"/><path fill="#2e0f3e" d="M1826.84,1801.57h-59.13c-1.07,0-1.93-0.86-1.93-1.93s0.86-1.93,1.93-1.93h59.13c1.07,0,1.93,0.86,1.93,1.93
				S1827.9,1801.57,1826.84,1801.57z"/><path fill="#775fa9" d="M1885.75,1538.73c-10.56,0-19.16-8.59-19.16-19.16c0-10.56,8.59-19.16,19.16-19.16
				c10.56,0,19.16,8.59,19.16,19.16C1904.91,1530.14,1896.31,1538.73,1885.75,1538.73z M1885.75,1504.59
				c-8.26,0-14.98,6.72-14.98,14.98c0,8.26,6.72,14.98,14.98,14.98c8.26,0,14.98-6.72,14.98-14.98
				C1900.73,1511.31,1894.01,1504.59,1885.75,1504.59z"/><circle cx="1842.18" cy="1519.57" r="8.53" fill="#f17243"/><circle cx="1816.2" cy="1519.57" r="8.53" fill="#4287c7"/><circle cx="1791.65" cy="1519.57" r="8.53" fill="#4287c7"/><g><path fill="#775fa9" d="M1935.04,1658.57c-38.03-62.84-22.59-141.79,34.49-176.34c57.08-34.55,134.19-11.61,172.22,51.23
				c38.03,62.84,119.09,243.28,36.34,293.37C2096.04,1876.48,1973.07,1721.41,1935.04,1658.57z"/><path fill="#f2c225" d="M2141.59,1658.82c17.89-3.86,34.38-12.36,47.84-24.61c-1.21-3.29-2.45-6.55-3.7-9.78
				c-0.19,0.11-0.37,0.23-0.57,0.33l-0.58,0.32l-0.48,0.45c-12.4,11.76-27.83,19.89-44.62,23.51
				c-50.48,10.9-100.42-21.3-111.32-71.78c-8.39-38.84,8.68-78.78,42.48-99.56c1.57-0.56,3.22-1.17,4.94-1.81
				c-4.37-1.82-8.81-3.39-13.3-4.7c-35.33,23.5-52.91,66.42-43.89,108.19C2030.45,1635.24,2085.72,1670.88,2141.59,1658.82z"/></g><path fill="#f2c225" d="M1164.76,1724.03c-12.31,0-24.44-5.12-33.13-14.9c-50.11-56.35-84.49-113.35-102.21-169.41
			c-14.75-46.68-18.12-93.15-10.01-138.12c14.54-80.65,62.41-135.84,82.32-155.83c6.62-6.65,15.43-10.31,24.79-10.31h507.06
			c15.55,0,29.11,9.75,33.74,24.26c7.24,22.68,28.93,34.12,64.57,34.12c5.74,0,11.84-0.3,18.31-0.89
			c9.44-0.88,15.87,5.29,18.04,11.78c2.18,6.51,0.76,15.31-7.32,20.33l-572.72,392.27
			C1180.92,1721.84,1172.8,1724.03,1164.76,1724.03z M1126.52,1240.47c-8.03,0-15.57,3.14-21.25,8.84
			c-46.58,46.76-182.08,217.88,30.1,456.5c12.75,14.34,33.86,17.4,50.19,7.28l572.72-392.27c6.16-3.82,6.66-10.19,5.22-14.49
			c-1.43-4.28-5.64-9.05-12.84-8.38c-21.61,1.99-39.72,0.64-53.83-4c-17.67-5.82-29.2-16.81-34.27-32.69
			c-3.97-12.43-15.61-20.78-28.97-20.78H1126.52z"/></g><g><path fill="#f2c225" d="M732.32,1095.6c-1.6,0.36-3.35-0.07-4.61-1.3l-56.95-55.74c-1.97-1.93-2.01-5.1-0.08-7.07
			c1.93-1.97,5.1-2.01,7.07-0.08l56.95,55.74c1.97,1.93,2.01,5.1,0.08,7.07C734.09,1094.93,733.23,1095.39,732.32,1095.6z"/><path fill="#f2c225" d="M712.44,1114.88c-0.97,0.22-2.01,0.15-3-0.25l-44.08-18.06c-2.56-1.05-3.78-3.97-2.73-6.52
			c1.05-2.56,3.97-3.78,6.52-2.73l44.08,18.06c2.56,1.05,3.78,3.97,2.73,6.52C715.32,1113.47,713.98,1114.53,712.44,1114.88z"/><path fill="#f2c225" d="M752.77,1078.97c-2.33,0.53-4.77-0.68-5.72-2.96l-18.25-44c-1.06-2.55,0.15-5.48,2.7-6.53
			c2.55-1.06,5.48,0.15,6.53,2.7l18.25,44c1.06,2.55-0.15,5.48-2.7,6.53C753.32,1078.83,753.05,1078.91,752.77,1078.97z"/><path fill="#de4298" d="M1494.84,1183.85c-14.67,0-26.6-11.93-26.6-26.6c0-14.67,11.93-26.6,26.6-26.6s26.6,11.93,26.6,26.6
		C1521.44,1171.92,1509.51,1183.85,1494.84,1183.85z M1494.84,1140.65c-9.15,0-16.6,7.45-16.6,16.6c0,9.15,7.45,16.6,16.6,16.6
		s16.6-7.45,16.6-16.6C1511.44,1148.1,1503.99,1140.65,1494.84,1140.65z"/><path fill="#f17243" d="M600.2,1649.05c-14.67,0-26.6-11.93-26.6-26.6c0-14.67,11.93-26.6,26.6-26.6s26.6,11.93,26.6,26.6
		C626.8,1637.12,614.87,1649.05,600.2,1649.05z M600.2,1605.85c-9.15,0-16.6,7.45-16.6,16.6c0,9.15,7.45,16.6,16.6,16.6
		s16.6-7.45,16.6-16.6C616.8,1613.3,609.35,1605.85,600.2,1605.85z"/><path fill="#775fa9" d="M2191.4,1427.49c-14.67,0-26.6-11.93-26.6-26.6c0-14.67,11.93-26.6,26.6-26.6s26.6,11.93,26.6,26.6
		C2218,1415.56,2206.07,1427.49,2191.4,1427.49z M2191.4,1384.29c-9.15,0-16.6,7.45-16.6,16.6c0,9.15,7.45,16.6,16.6,16.6
		s16.6-7.45,16.6-16.6C2208,1391.74,2200.55,1384.29,2191.4,1384.29z"/><path fill="#4287c7" d="M1954.84,1038.82c-1.93,0-3.5-1.57-3.5-3.5c0-12.74-10.37-23.11-23.11-23.11c-1.93,0-3.5-1.57-3.5-3.5
			s1.57-3.5,3.5-3.5c16.6,0,30.11,13.51,30.11,30.11C1958.34,1037.25,1956.77,1038.82,1954.84,1038.82z"/><path fill="#4287c7" d="M1975.39,1037.82c-1.38,0-2.5-1.12-2.5-2.5c0-24.63-20.03-44.66-44.66-44.66c-1.38,0-2.5-1.12-2.5-2.5
			s1.12-2.5,2.5-2.5c27.38,0,49.66,22.28,49.66,49.66C1977.89,1036.7,1976.77,1037.82,1975.39,1037.82z"/><path fill="#4287c7" d="M1998.43,1036.82c-0.83,0-1.5-0.67-1.5-1.5c0-37.88-30.82-68.7-68.7-68.7c-0.83,0-1.5-0.67-1.5-1.5
			s0.67-1.5,1.5-1.5c39.54,0,71.7,32.16,71.7,71.7C1999.93,1036.15,1999.26,1036.82,1998.43,1036.82z"/><path fill="#f17243" d="M2284.19,999.49c-0.36,0-0.72-0.04-1.09-0.12l-18.87-4.19c-9.87-2.19-16.12-12.01-13.92-21.88l1.41-6.34
		c0.98-4.39-1.67-8.73-6.02-9.87l-9.21-2.42c-9.28-2.44-15.15-11.74-13.35-21.17l1.87-9.78c0.8-4.22-1.81-8.44-5.95-9.59
		l-13.54-3.79c-8.83-2.47-14.51-11.18-13.22-20.26l1.88-13.14c0.63-4.38-2.28-8.49-6.62-9.36l-23.06-4.61
		c-2.71-0.54-4.46-3.18-3.92-5.88c0.54-2.71,3.17-4.47,5.88-3.92l23.06,4.61c9.54,1.91,15.93,10.95,14.56,20.58l-1.88,13.14
		c-0.59,4.13,1.99,8.09,6.01,9.21l13.54,3.79c9.1,2.55,14.85,11.81,13.08,21.1l-1.87,9.78c-0.82,4.29,1.85,8.52,6.07,9.63l9.21,2.42
		c9.57,2.52,15.38,12.06,13.24,21.71l-1.41,6.34c-1,4.49,1.84,8.95,6.33,9.95l18.87,4.19c2.7,0.6,4.39,3.27,3.8,5.97
		C2288.55,997.9,2286.48,999.49,2284.19,999.49z"/><path fill="#775fa9" d="M1290.07,1895.83c-0.1,0.34-0.25,0.68-0.43,1.01l-9.47,16.86c-4.95,8.82-16.15,11.96-24.97,7.01l-5.67-3.18
		c-3.92-2.2-8.84-0.93-11.19,2.91l-4.98,8.12c-5.02,8.18-15.62,11.11-24.13,6.66l-8.83-4.61c-3.81-1.99-8.6-0.71-10.9,2.92
		l-7.54,11.87c-4.92,7.74-14.89,10.67-23.21,6.8l-12.03-5.59c-4.01-1.86-8.79-0.27-10.87,3.63l-11.08,20.75
		c-1.3,2.44-4.33,3.36-6.77,2.06c-2.44-1.3-3.36-4.33-2.06-6.77l11.08-20.75c4.58-8.58,15.08-12.09,23.91-7.99l12.03,5.59
		c3.78,1.76,8.32,0.43,10.55-3.09l7.54-11.87c5.07-7.98,15.6-10.8,23.98-6.42l8.83,4.61c3.87,2.02,8.69,0.69,10.97-3.03l4.98-8.12
		c5.18-8.43,15.99-11.24,24.61-6.4l5.67,3.18c4.01,2.25,9.1,0.82,11.36-3.19l9.47-16.86c1.35-2.41,4.4-3.26,6.81-1.91
		C1289.82,1891.2,1290.74,1893.64,1290.07,1895.83z"/></g></svg>