<?xml version="1.0" encoding="UTF-8" standalone="no" ?>
<!DOCTYPE svg PUBLIC "-//W3C//DTD SVG 1.1//EN" "http://www.w3.org/Graphics/SVG/1.1/DTD/svg11.dtd">
<svg xmlns="http://www.w3.org/2000/svg" xmlns:xlink="http://www.w3.org/1999/xlink" version="1.1" width="200" height="275" viewBox="-188.57 -172.5 200 275" xml:space="preserve">
<desc>Created with Fabric.js 5.2.4</desc>
<defs>
</defs>
<g transform="matrix(1 0 0 1 100 137.5)" id="066a679c-1f13-4d99-8479-c778eb3eb665"  >
<rect style="stroke: none; stroke-width: 1; stroke-dasharray: none; stroke-linecap: butt; stroke-dashoffset: 0; stroke-linejoin: miter; stroke-miterlimit: 4; fill: rgb(255,255,255); fill-rule: nonzero; opacity: 1; visibility: hidden;" vector-effect="non-scaling-stroke"  x="-100" y="-137.5" rx="0" ry="0" width="200" height="275" />
</g>
<g transform="matrix(Infinity NaN NaN Infinity 0 0)" id="3685e403-8296-4b19-b942-1b66a6c6e088"  >
</g>
<g transform="matrix(1 0 0 1 -83.33 -43.33)"  >
<g style=""   >
		<g transform="matrix(12.78 0 0 12.78 0 -33.68)" id="SvgjsG1100"  >
<path style="stroke: none; stroke-width: 1; stroke-dasharray: none; stroke-linecap: butt; stroke-dashoffset: 0; stroke-linejoin: miter; stroke-miterlimit: 4; fill: rgb(17,17,17); fill-rule: nonzero; opacity: 1;" vector-effect="non-scaling-stroke"  transform=" translate(-3.83, -13.51)" d="M 0.7 17.92 L 0.7 7.020000000000001 L 2.7800000000000002 7.020000000000001 L 2.7800000000000002 7.020000000000001 L 2.7800000000000002 17.92 L 4.880000000000001 17.92 L 6.960000000000001 20 L 2.780000000000001 20 z" stroke-linecap="round" />
</g>
		<g transform="matrix(4.76 0 0 4.76 0 103)" id="SvgjsG1101"  >
<path style="stroke: none; stroke-width: 1; stroke-dasharray: none; stroke-linecap: butt; stroke-dashoffset: 0; stroke-linejoin: miter; stroke-miterlimit: 4; fill: rgb(17,17,17); fill-rule: nonzero; opacity: 1;" vector-effect="non-scaling-stroke"  transform=" translate(-22.2, -12.93)" d="M 4.42 17.04 L 9.74 17.04 L 9.74 20 L 1.200000000000001 20 L 1.200000000000001 6 L 4.420000000000002 6 L 4.420000000000002 17.04 z M 16.520000000000003 9.42 C 18.880000000000003 9.42 22.180000000000003 11.2 21.520000000000003 15.9 L 14.260000000000003 15.9 C 14.620000000000003 16.98 15.560000000000004 17.54 16.820000000000004 17.54 C 18.100000000000005 17.54 18.500000000000004 17.259999999999998 19.220000000000002 16.96 L 20.96 18.64 C 20.04 19.54 18.8 20.2 16.700000000000003 20.2 C 14.120000000000003 20.2 11.040000000000003 18.419999999999998 11.040000000000003 14.84 C 11.040000000000003 11.2 14.160000000000004 9.42 16.520000000000003 9.42 z M 16.520000000000003 12.120000000000001 C 15.620000000000003 12.120000000000001 14.700000000000003 12.64 14.300000000000002 13.680000000000001 L 18.720000000000002 13.680000000000001 C 18.400000000000002 12.64 17.42 12.120000000000001 16.520000000000003 12.120000000000001 z M 30.800000000000004 9.6 L 33.96000000000001 9.6 L 33.96000000000001 20 L 30.800000000000008 20 L 30.800000000000008 18.96 C 30.660000000000007 19.32 29.720000000000006 20.2 28.120000000000008 20.2 C 25.74000000000001 20.2 23.000000000000007 18.5 23.000000000000007 14.78 C 23.000000000000007 11.2 25.74000000000001 9.419999999999998 28.120000000000008 9.419999999999998 C 29.72000000000001 9.419999999999998 30.660000000000007 10.339999999999998 30.800000000000008 10.559999999999999 L 30.800000000000008 9.599999999999998 z M 28.580000000000005 17.42 C 29.880000000000006 17.42 30.940000000000005 16.520000000000003 30.940000000000005 14.780000000000001 C 30.940000000000005 13.100000000000001 29.880000000000006 12.200000000000001 28.580000000000005 12.200000000000001 C 27.220000000000006 12.200000000000001 26.060000000000006 13.120000000000001 26.060000000000006 14.780000000000001 C 26.060000000000006 16.5 27.220000000000006 17.42 28.580000000000005 17.42 z M 40.86000000000001 8.26 C 39.96000000000001 8.26 39.980000000000004 9.08 39.980000000000004 9.28 L 39.980000000000004 9.6 L 42.14 9.6 L 42.14 12.2 L 39.980000000000004 12.2 L 39.980000000000004 20 L 36.800000000000004 20 L 36.800000000000004 12.2 L 35.38 12.2 L 35.38 9.6 L 36.800000000000004 9.6 L 36.800000000000004 9.28 C 36.800000000000004 6.059999999999999 39.220000000000006 5.659999999999999 40.480000000000004 5.659999999999999 C 41.480000000000004 5.659999999999999 42.46 5.879999999999999 43.2 6.359999999999999 L 42.14 8.54 C 41.56 8.319999999999999 41.34 8.26 40.86 8.26 z" stroke-linecap="round" />
</g>
</g>
</g>
</svg>