<svg xmlns="http://www.w3.org/2000/svg" viewBox="0 0 600 400"><path fill="#F6AB1C" d="M266.226,315.208c80.043,33.632,172.523-4.126,206.155-84.169c33.632-80.044-4.126-172.525-84.169-206.157   l-2.324,5.531C462.88,62.764,499.2,151.721,466.85,228.715c-32.35,76.992-121.308,113.311-198.3,80.962L266.226,315.208"/><rect width="22.304" height="6.13" x="376.346" y="36.936" fill="#F6AB1C" transform="rotate(-67.207 387.491 40.009)"/><polyline fill="#F6AB1C" points="269.17 313.708 274.821 316.082 283.461 295.519 277.81 293.145 269.17 313.708"/><path fill="#3492CF" d="M461.243,167.924v1.747c0,0.591-0.021,1.179-0.04,1.749c0,0.59-0.019,1.179-0.039,1.767   c-0.015,0.588-0.053,1.18-0.071,1.748c-0.078,1.349-0.152,2.717-0.267,4.085c-0.054,0.648-0.113,1.293-0.169,1.939   c-0.061,0.703-0.135,1.405-0.214,2.128c-0.073,0.722-0.149,1.425-0.244,2.166c-0.098,0.702-0.188,1.424-0.286,2.127   c-10.544,76.171-80.845,129.373-157.017,118.828c-2.792-0.38-5.567-0.856-8.284-1.405c-0.417-0.078-0.816-0.153-1.234-0.248   c-1.007-0.209-2.015-0.435-3.022-0.647c-0.475-0.133-0.969-0.245-1.463-0.381c-0.568-0.132-1.14-0.264-1.69-0.416   c-0.59-0.133-1.14-0.285-1.71-0.456c-0.569-0.152-1.141-0.305-1.691-0.458c-0.475-0.131-0.931-0.264-1.405-0.416   c-3.438-1.008-6.841-2.149-10.166-3.42c-0.53-0.21-1.063-0.417-1.595-0.627c-0.552-0.209-1.064-0.417-1.596-0.645   c-0.379-0.153-0.722-0.304-1.066-0.439c-0.454-0.189-0.911-0.378-1.348-0.569c-4.503-1.958-8.873-4.122-13.091-6.516   c-0.797-0.458-1.596-0.915-2.395-1.388c-1.12-0.647-2.223-1.33-3.324-2.014c-0.723-0.476-1.464-0.932-2.168-1.407   c-0.226-0.152-0.455-0.284-0.664-0.436c-0.723-0.477-1.444-0.971-2.147-1.464c-0.227-0.134-0.438-0.285-0.646-0.438   c-0.664-0.474-1.329-0.949-1.994-1.444c-0.854-0.607-1.71-1.234-2.527-1.88c-0.855-0.628-1.672-1.272-2.489-1.939   c-0.835-0.665-1.652-1.309-2.451-1.995c-0.798-0.683-1.615-1.367-2.393-2.051l-0.039-0.02c-0.778-0.702-1.559-1.387-2.318-2.092   c-0.76-0.7-1.539-1.425-2.279-2.145c-0.114-0.096-0.227-0.208-0.323-0.305c-1.406-1.349-2.775-2.735-4.123-4.141   c-0.723-0.76-1.443-1.539-2.147-2.299c-0.704-0.778-1.388-1.559-2.09-2.356c-0.628-0.74-1.273-1.482-1.901-2.223l-0.133-0.171   c-1.349-1.612-2.641-3.249-3.914-4.939c-1.976-2.586-3.837-5.224-5.604-7.944c-6.422-9.803-11.609-20.405-15.391-31.615   c-1.007-2.927-1.901-5.871-2.678-8.855c-0.343-1.272-0.666-2.527-0.95-3.8c-0.285-1.215-0.552-2.432-0.818-3.647   c-3.154-15.182-3.801-31.141-1.54-47.365c0.704-5.095,1.673-10.071,2.888-14.937c1.9-7.636,4.446-15.009,7.543-22.059   c5.093-11.608,11.704-22.324,19.552-31.921c25.859-31.634,65.113-51.241,107.748-51.241h1.066h0.036   c6.005,0.057,12.085,0.492,18.184,1.328c22.838,3.174,43.623,11.704,61.218,24.148c2.033,1.444,4.029,2.947,5.966,4.485   c3.63,2.851,7.089,5.89,10.396,9.082c0.091,0.094,0.206,0.191,0.285,0.285c0.377,0.361,0.776,0.74,1.139,1.122   c0.474,0.454,0.95,0.931,1.406,1.405c2.165,2.223,4.253,4.522,6.286,6.859c0.364,0.437,0.724,0.856,1.065,1.292   c0.359,0.419,0.726,0.856,1.064,1.293c1.767,2.147,3.461,4.369,5.095,6.632c0.303,0.436,0.627,0.89,0.947,1.349   c1.292,1.823,2.529,3.686,3.724,5.566c0.285,0.457,0.59,0.932,0.876,1.408c0.284,0.474,0.589,0.968,0.87,1.424   c0.573,0.968,1.147,1.936,1.694,2.907c0.268,0.437,0.511,0.912,0.762,1.367c0.836,1.482,1.616,3.002,2.41,4.523   c0.231,0.493,0.494,1.008,0.742,1.5c1.007,2.073,1.975,4.182,2.907,6.309c0.19,0.436,0.383,0.876,0.551,1.329   c0.438,1.027,0.856,2.072,1.276,3.117c0.437,1.121,0.868,2.26,1.272,3.402c0.342,0.967,0.682,1.955,1.024,2.943   c0.171,0.512,0.34,1.064,0.516,1.597c0.36,1.081,0.684,2.147,1.007,3.228c0.151,0.554,0.305,1.085,0.474,1.637   c0.095,0.343,0.19,0.664,0.27,1.007c0.662,2.413,1.247,4.843,1.783,7.277c0.113,0.552,0.226,1.085,0.342,1.635   c0.225,1.102,0.437,2.223,0.625,3.343c0.209,1.121,0.399,2.242,0.573,3.383c0.054,0.381,0.108,0.798,0.169,1.179   c0.134,0.852,0.246,1.729,0.343,2.583c0.073,0.456,0.114,0.892,0.17,1.348c0.056,0.573,0.133,1.142,0.189,1.71   c0.135,1.276,0.233,2.567,0.324,3.838c0.055,0.667,0.114,1.314,0.134,1.959c0.019,0.379,0.055,0.742,0.073,1.102   c0.023,0.569,0.061,1.121,0.08,1.689v0.193c0.034,0.531,0.034,1.062,0.054,1.614C461.222,165.57,461.243,166.749,461.243,167.924"/><path fill="#82AA49" d="M260.286,48.02c1.983,3.027,5.72,3.977,5.851,6.205c0.137,2.22-0.541,3.206-1.052,2.297   c-0.514-0.905,0.085-2.386-1.582-2.712c-0.677-0.137-1.053,0.116-1.369,0.369c-0.463,0.371-0.796,0.743-1.754-0.118   c-1.612-1.446-2.508-2.405-3.943-1.577c-1.438,0.828-0.786,4.253-2.35,4.576c-0.953,0.192-7.452-1.328-12.383-2.54   c-14.08,9.947-26.315,22.467-35.932,37.005c0.098,0.209,0.212,0.413,0.354,0.616c2.127,3.044,5.401,4.859,6.129,8.102   c0.728,3.235-0.929,13.78,0.269,17.863c1.195,4.082,6.019,8.864,6.971,13.311c0.953,4.441,4.009,6.431,6.619,7.376   c2.611,0.946,4.745-0.314,4.745-0.314s1.984,8.303,5.371,10.735c3.386,2.421,6.707,2.493,9.537,3.27   c2.833,0.79,8.999,5.759,11.509,8.85c2.51,3.093,2.118,7.349-0.138,12.319c-2.259,4.978-2.915,5.476-2.823,7.646   c0.093,2.163-7.007,10.977-2.892,16.644c4.112,5.66,10.427,12.415,11.948,15.565c1.522,3.153-2.852,6.461-2.736,8.432   c0.119,1.976,2.059,0.68,0.434,5.358c-1.626,4.667-3.658,10.853-2.684,13.726c0.974,2.877,1.436,2.357-0.8,5.766   c-2.233,3.416-1.727,6.822-1.946,12.664c-0.224,5.848,3.631,9.12,6.806,13.091c3.175,3.964,5.612,3.321,6.761,2.112   c1.146-1.214-3.266-6.14-3.146-9.846c0.125-3.702,1.144-8.261,2.486-9.447c1.342-1.188,0.223-5.847,1.37-7.062   c1.147-1.21,9.814-2.951,12.379-5.922c2.567-2.973-4.081-4.487,0.907-6.535c4.984-2.052,12.117-2.628,12.351-5.733   c0.235-3.104-0.791-6.968,1.177-8.459c1.966-1.489,8.687-1.929,10.983-4.355c2.293-2.425,0.811-9.486,3.211-12.288   c2.405-2.803,5.701-8.219,2.826-12.933c-2.875-4.7-13.743-5.429-15.459-8.606c-1.716-3.174,0.525-5.215-3.217-7.886   c-3.744-2.68-13.392-12.242-19.265-12.275c-5.874-0.028-12.005-2.442-13.164-3.975c-1.159-1.529,1.425-7.445-1.381-8.418   c-1.077-0.377-2.148-0.173-3.065,0.03c-1.469,0.326-2.543,0.652-2.618-1.41c-0.127-3.345,4.825-6.579,0.597-7.164   c-1.491-0.206-3.214,0.212-4.851,0.631c-3.008,0.769-5.727,1.537-6.183-1.57c-0.709-4.803,1.164-9.826,5.995-9.356   c1.979,0.195,3.525-0.754,4.842-1.704c1.901-1.37,3.327-2.74,4.893-0.672c2.647,3.497,4.566,9.454,6.066,7.108   c1.5-2.335-2.859-7.641,0.341-9.544c3.207-1.911,8.859-1.717,8.923-6.41c0.063-4.693-3.372-5.361,0.248-6.038   c1.353-0.252,2.648,0.117,3.754,0.487c1.854,0.618,3.182,1.236,3.378-1.064c0.313-3.678-0.137-6.095,1.349-5.497   c1.484,0.597,2.922,2.949,5.825,1.783c2.906-1.159,6.657-2.796,4.457-3.882c-2.201-1.093-3.876-1.716-4.133-4.097   c-0.257-2.389-3.526-2.845-3.034-3.561c0.489-0.716,6.391-0.876,7.138,0.796c0.748,1.665,0.451,2.41,2.92,2.948   c2.473,0.538,2.947,2.761,5.123,4.033c2.174,1.284,3.724-1.435,2.456-3.568c-1.274-2.135-2.757-2.735-2.709-4.495   c0.046-1.751,1.626-4.667,0.441-6.003c-1.189-1.338-2.653-2.432-4.697-3.94c-2.047-1.501-2.207,0.726-2.98-3.598   c-0.77-4.315-1.098-9.751-2.816-9.003c-1.721,0.739-1.774,5.729-3.81,4.858c-2.033-0.868-2.859-1.276-2.794-2.806   c0.066-1.537,1.234-2.545-0.229-3.114c-1.463-0.584-1.315,0.47-3.052-1.826c-1.738-2.301-0.873-4.315-2.331-3.336   c-1.456,0.97-1.572,2.86-3.08,2.067c-1.506-0.798-1.696-2.07-2.826-1.859c-1.132,0.211-0.17,3.867-0.284,5.764   c-0.116,1.893-2.916,1.432-2.065,3.24c0.851,1.809,3.104,4.101,2.135,5.809c-0.973,1.702-3.867,0.856-3.945,1.953   c-0.078,1.086,2.149,4.627,0.651,5.376c-1.498,0.741-0.659-2.665-2.089-4.55c-1.428-1.893-6.72-2.406-9.087-4.934   c-1.241-1.325-2.218-1.205-3.016-1.084c-0.726,0.11-1.303,0.219-1.797-0.757c-1.04-2.056-2.514-4.682-0.905-6.738   c1.608-2.052,4.075-2.375,4.932-4.315c0.856-1.935,2.666-2.273,5.858-1.464c3.194,0.808,7.073,1.996,6.696-0.072   c-0.373-2.068-8.268-6.609-6.489-6.729c0.59-0.041,1.54,0.05,2.563,0.14c2.065,0.183,4.422,0.365,4.694-0.533   c0.405-1.34-1.117-3.533-0.555-4.704c0.56-1.169-1.253-1.865-2.244-2.664c-0.567-0.456,0.584-0.363,1.947-0.27   c1.026,0.07,2.172,0.14,2.795-0.025c1.448-0.389,3.055-0.313,2.416,1.654c-0.639,1.971-2.521,2.809-1.537,4.192   c0.983,1.388,3.444,3.782,4.372,2.376c0.934-1.418-1.304-4.371,0.565-3.01c1.868,1.359,1.595,2.79,0.296,4.23   c-1.302,1.433-4.702,0.52-5.217,2.145c-0.52,1.611,8.055,2.285,10.196,4.864c2.14,2.573,5.716,5.932,6.273,4.024   c0.56-1.904-0.285-4.301-0.476-6.091c-0.093-0.855,0.211-0.467,0.813-0.079c0.659,0.425,1.676,0.85,2.918-0.358   c2.378-2.317,4.049-4.288,0.788-6.206c-3.26-1.925-7.136-3.12-6.038-4.146c1.098-1.02,1.564-2.276-0.315-3.567   c-1.879-1.288-3.276-1.97-4.357-4.079c-1.079-2.115-5.031-3.637-6.599-2.926c-1.567,0.706-2.543,1.749-3.75,0.896   c-1.202-0.852,0.149-4.239-2.519-5.487c-1.339-0.628-2.005-0.152-2.598,0.324c-0.589,0.473-1.108,0.946-2.146,0.337   c-0.946-0.556-1.268-1.319-1.588-1.952c-2.053,0.906-4.077,1.849-6.077,2.852C259.474,45.064,259.426,46.708,260.286,48.02"/><path fill="#82AA49" d="M340.839,36.265c-1.215-1.038-0.81-3.754-0.21-5.966c-15.298-2.062-30.349-1.57-44.726,1.175   c1.377,1.119,2.782,2.648,3.714,4.664c2.411,5.229,2.562,6.229,2.326,7.959c-0.243,1.734,1.683,1.996,0.851,3.745   c-0.827,1.743,0.374,4.359,1.247,5.165c0.864,0.807-0.911,5.851-1.04,7.498c-0.134,1.649,4.268,6.666,3.933,9.07   c-0.333,2.397,7.271,2.673,9.824,5.471c2.55,2.799,8.001,0.229,7.552-2.186c-0.45-2.416-0.963-5.814,0.605-9.321   c1.562-3.507,7.684-2.461,7.755-5.096c0.071-2.636-2.181-4.021,0.098-5.666c2.289-1.644,8.979-1.891,10.867-7.015   C345.523,40.638,343.026,38.13,340.839,36.265z"/><path fill="#82AA49" d="M396.546,50.593c-3.504,1.064-8.609,2.738-11.264,4.187c-4.287,2.346-3.064,9.42-6.97,11.078   c-3.898,1.665-7.247,3.551-7.781,8.477c-0.309,2.828,1.537,2.705,3.515,2.582c1.465-0.091,3.001-0.183,3.789,0.923   c1.842,2.609,9.532,6.472,10.26,3.337c0.727-3.132,3.414-15.101,7.279-16.478c3.866-1.376-1.947,6.633-0.147,9.532   c1.808,2.899-0.8,11.058-7.006,12.4c-2.818,0.609-4.824-0.505-6.584-1.619c-2.118-1.34-3.881-2.68-6.276-1.02   c-4.386,3.04-6.64,5.521-13.794,8.352c-7.148,2.827,0.096,6.771-2.237,10.857c-2.328,4.084-11.014,4.204-12.106,7.873   c-1.098,3.668,6.42,5.594,1.482,10.488c-4.937,4.902-11.399,5.916-12.376,11.951c-0.986,6.034,3.39,9.438-0.53,12.269   c-3.917,2.839-4.17,11.028,0.907,13.647c5.072,2.611,8.109,8.248,12.465,9.702c1.99,0.658,4.507-0.045,6.97-0.747   c2.924-0.834,5.77-1.668,7.564-0.226c3.304,2.661,6.909,18.006,4.378,26.764c-2.537,8.758,5.801,10.063,6.18,16.872   c0.381,6.81-1.534,15.363,2.94,18.04c4.479,2.679,18.658-2.117,19.15-8.808c0.482-6.693-3.404-6.201,4.343-13.36   c7.754-7.158,4.105-12.651,6.731-19.928c2.624-7.28,15.101-10.401,18.297-18.623c3.197-8.226,6.448-8.366-4.072-8.793   c-10.517-0.428-13.124-8.137-15.787-15.405c-2.667-7.283,0.165-13.943,1.456-10.53c1.292,3.411,0.773,12.446,4.947,16.258   c4.176,3.814,14.135,8.278,18.255,3.998c4.119-4.277,11.126-7.127,7.905-9.339c-1.385-0.947-3.261-0.879-5.14-0.811   c-2.495,0.09-4.996,0.18-6.358-2.105c-2.378-4.002-2.9-9.809-0.816-7.9c2.086,1.905,2.307,5.608,6.593,5.475   c4.279-0.146,9.231-1.954,10.765,0.75c1.53,2.71,7.443,7.791,9.376,11.88c1.93,4.088,6.344,19.979,6.344,19.979   s0.94-1.369,2.101-3.939C461.483,119.994,436.173,75.716,396.546,50.593"/><path fill="#1A5BB7" d="M440.024,139.235c-1.669,0-3.685,0.392-5.67,0.604c0.005,0.393,0.007,0.787,0.007,1.182   c0,0.59,0,1.176-0.019,1.767c0,0.545,0,1.11-0.019,1.673c0.139-0.002,0.277-0.004,0.414-0.004c1.368,0,2.664,0.144,3.69,0.846   c2.413,1.657-0.915,3.673-4.469,6.378c-0.012,0.152-0.024,0.304-0.037,0.456c-0.037,0.627-0.097,1.291-0.152,1.918   c-0.057,0.723-0.151,1.426-0.226,2.127c-0.06,0.724-0.152,1.444-0.251,2.167c-0.072,0.704-0.169,1.425-0.266,2.149   c-9.661,69.687-69.302,120.143-137.729,120.143c-6.368,0-12.818-0.438-19.305-1.337c-2.793-0.379-5.548-0.854-8.284-1.385   c-0.418-0.094-0.817-0.171-1.217-0.268c-1.005-0.208-2.031-0.437-3.021-0.647c-0.494-0.111-0.988-0.245-1.463-0.359   c-0.571-0.133-1.14-0.285-1.71-0.437c-0.569-0.134-1.139-0.284-1.71-0.436c-0.569-0.152-1.121-0.323-1.691-0.476   c-0.475-0.134-0.931-0.266-1.386-0.397c-3.46-1.028-6.84-2.17-10.165-3.44c-0.534-0.21-1.085-0.4-1.615-0.627   c-0.532-0.209-1.064-0.419-1.596-0.647c-0.361-0.134-0.722-0.286-1.064-0.438c-0.457-0.19-0.892-0.38-1.33-0.57   c-4.504-1.956-8.874-4.123-13.11-6.498c-0.78-0.454-1.576-0.911-2.374-1.385c-1.121-0.667-2.243-1.351-3.326-2.035   c-0.741-0.456-1.463-0.931-2.185-1.407c-0.209-0.131-0.438-0.282-0.646-0.435c-0.722-0.457-1.443-0.969-2.165-1.465   c-0.21-0.133-0.438-0.284-0.628-0.434c-0.684-0.458-1.349-0.933-2.014-1.425c-0.742-0.554-1.464-1.086-2.185-1.636   c1.255,1.671,2.547,3.306,3.876,4.903l0.133,0.171c0.628,0.741,1.273,1.482,1.901,2.223c0.702,0.797,1.386,1.578,2.09,2.356   c0.703,0.76,1.424,1.539,2.147,2.299c1.349,1.406,2.717,2.793,4.123,4.141c0.096,0.097,0.209,0.209,0.323,0.305   c0.74,0.72,1.52,1.444,2.279,2.145c0.76,0.704,1.54,1.39,2.318,2.092l0.039,0.02c0.777,0.684,1.595,1.368,2.393,2.051   c0.799,0.686,1.616,1.33,2.451,1.995c0.817,0.668,1.635,1.311,2.489,1.939c0.817,0.646,1.673,1.272,2.527,1.88   c0.665,0.495,1.33,0.971,1.994,1.444c0.209,0.152,0.419,0.304,0.646,0.438c0.703,0.493,1.424,0.987,2.147,1.464   c0.209,0.151,0.438,0.283,0.664,0.436c0.704,0.475,1.445,0.932,2.168,1.407c1.101,0.684,2.204,1.366,3.324,2.014   c0.799,0.473,1.598,0.93,2.395,1.388c4.218,2.393,8.588,4.558,13.091,6.516c0.437,0.191,0.894,0.38,1.348,0.569   c0.344,0.135,0.687,0.285,1.066,0.439c0.532,0.228,1.044,0.436,1.596,0.645c0.532,0.21,1.065,0.417,1.595,0.627   c3.325,1.271,6.728,2.412,10.166,3.42c0.474,0.152,0.931,0.285,1.405,0.416c0.551,0.153,1.122,0.306,1.691,0.458   c0.571,0.171,1.12,0.323,1.71,0.456c0.551,0.152,1.122,0.284,1.69,0.416c0.494,0.136,0.988,0.248,1.463,0.381   c1.008,0.212,2.016,0.437,3.022,0.647c0.417,0.095,0.817,0.17,1.234,0.248c2.717,0.549,5.492,1.025,8.284,1.405   c6.476,0.897,12.91,1.332,19.268,1.332c68.426,0,128.101-50.466,137.748-120.16c0.099-0.703,0.189-1.425,0.286-2.127   c0.096-0.741,0.171-1.444,0.244-2.166c0.079-0.723,0.153-1.425,0.214-2.128c0.056-0.646,0.115-1.29,0.169-1.939   c0.115-1.368,0.189-2.735,0.267-4.085c0.019-0.569,0.057-1.16,0.071-1.748c0.02-0.589,0.039-1.178,0.039-1.767   c0.019-0.571,0.04-1.158,0.04-1.749v-0.936c-1.139,2.503-2.054,3.835-2.054,3.835s-4.414-15.892-6.344-19.979   c-1.933-4.089-7.846-9.17-9.376-11.88C442.825,139.574,441.575,139.235,440.024,139.235"/><path fill="#437F24" d="M434.736,144.456c-0.137,0-0.276,0.001-0.414,0.004c-0.001,0.025-0.002,0.051-0.003,0.076   c-0.02,0.569-0.037,1.159-0.056,1.766c-0.02,0.57-0.038,1.159-0.075,1.748c-0.054,1.199-0.134,2.415-0.23,3.63   c3.553-2.706,6.882-4.721,4.469-6.378C437.401,144.601,436.104,144.456,434.736,144.456 M406.01,57.231   c0.721,0.931,1.426,1.881,2.109,2.83c0.323,0.458,0.646,0.894,0.971,1.368c1.271,1.823,2.508,3.668,3.706,5.548   c0.3,0.476,0.604,0.95,0.891,1.426c0.283,0.476,0.572,0.949,0.857,1.425c0.586,0.95,1.139,1.921,1.688,2.889   c0.267,0.457,0.512,0.91,0.778,1.367c0.816,1.482,1.616,3.003,2.394,4.541c0.248,0.495,0.492,0.987,0.741,1.483   c1.025,2.069,1.999,4.179,2.906,6.325c0.194,0.437,0.382,0.874,0.57,1.332c0.438,1.025,0.855,2.069,1.255,3.115   c0.439,1.121,0.874,2.242,1.273,3.38c0.363,0.988,0.685,1.959,1.026,2.946c0.169,0.531,0.362,1.085,0.535,1.616   c0.341,1.063,0.662,2.146,0.986,3.211c0.152,0.551,0.322,1.1,0.472,1.635c0.099,0.34,0.191,0.683,0.29,1.003   c0.662,2.416,1.251,4.849,1.785,7.299c0.096,0.53,0.224,1.062,0.322,1.615c0.249,1.102,0.438,2.224,0.644,3.343   c0.189,1.12,0.382,2.261,0.573,3.383c0.038,0.38,0.094,0.799,0.151,1.196c0.15,0.856,0.245,1.712,0.358,2.586   c0.057,0.434,0.116,0.892,0.154,1.33c0.076,0.57,0.135,1.139,0.189,1.709c0.133,1.291,0.248,2.565,0.339,3.856   c0.045,0.646,0.099,1.312,0.135,1.958c0.019,0.359,0.038,0.722,0.059,1.1c0.039,0.55,0.057,1.122,0.075,1.692v0.17   c0.038,0.533,0.056,1.064,0.056,1.614c0.027,0.769,0.045,1.54,0.054,2.315c1.985-0.212,4.001-0.604,5.67-0.604   c1.551,0,2.801,0.339,3.446,1.477c1.53,2.71,7.443,7.791,9.376,11.88c1.93,4.088,6.344,19.979,6.344,19.979   s0.915-1.333,2.054-3.835l0,0v-0.811c0-1.176-0.021-2.355-0.04-3.494c-0.019-0.553-0.019-1.083-0.054-1.614v-0.193   c-0.019-0.568-0.057-1.12-0.08-1.689c-0.019-0.359-0.055-0.723-0.073-1.102c-0.019-0.646-0.079-1.292-0.134-1.959   c-0.091-1.271-0.189-2.562-0.324-3.838c-0.056-0.568-0.133-1.137-0.189-1.71c-0.056-0.456-0.097-0.892-0.17-1.348   c-0.097-0.854-0.209-1.73-0.343-2.583c-0.061-0.381-0.115-0.798-0.169-1.179c-0.175-1.141-0.364-2.262-0.573-3.383   c-0.188-1.12-0.399-2.241-0.625-3.343c-0.116-0.55-0.229-1.083-0.342-1.635c-0.536-2.434-1.121-4.863-1.783-7.277   c-0.08-0.343-0.176-0.664-0.27-1.007c-0.169-0.552-0.322-1.083-0.474-1.637c-0.323-1.081-0.647-2.147-1.007-3.228   c-0.176-0.532-0.345-1.085-0.516-1.597c-0.342-0.988-0.682-1.977-1.024-2.943c-0.403-1.142-0.835-2.281-1.272-3.402   c-0.421-1.045-0.839-2.09-1.276-3.117c-0.168-0.453-0.361-0.894-0.551-1.329c-0.932-2.127-1.9-4.235-2.907-6.309   c-0.248-0.492-0.512-1.007-0.742-1.5c-0.794-1.52-1.574-3.04-2.41-4.523c-0.251-0.455-0.493-0.931-0.762-1.367   c-0.547-0.971-1.121-1.939-1.694-2.907c-0.281-0.456-0.586-0.95-0.87-1.424c-0.286-0.476-0.591-0.951-0.876-1.408   c-1.195-1.88-2.432-3.742-3.724-5.566c-0.32-0.458-0.644-0.913-0.947-1.349c-1.634-2.263-3.328-4.485-5.095-6.632   c-0.338-0.437-0.704-0.874-1.064-1.293c-0.342-0.436-0.701-0.855-1.065-1.292c-2.033-2.337-4.121-4.636-6.286-6.859   c-0.456-0.474-0.932-0.951-1.406-1.405c-0.363-0.382-0.762-0.761-1.139-1.122c-0.079-0.095-0.194-0.191-0.285-0.285   c-3.307-3.192-6.766-6.231-10.396-9.082C407.547,58.409,406.79,57.821,406.01,57.231"/><polyline fill="#F6AB1C" points="329.165 357.168 337.073 357.168 337.073 324.003 329.165 324.003 329.165 357.168"/><polyline fill="#F6AB1C" points="226.918 361.212 438.263 361.212 438.263 357.168 226.918 357.168 226.918 361.212"/><polyline fill="#F6AB1C" points="209.509 372.429 455.247 372.429 455.247 361.212 209.509 361.212 209.509 372.429"/><polyline fill="#F1810E" points="226.918 357.168 226.918 357.168 226.918 361.212 438.263 361.212 226.918 357.168"/><polyline fill="#F1810E" points="209.509 361.212 209.509 361.212 209.509 372.429 455.247 372.429 209.509 361.212"/><polyline fill="#F1810E" points="329.165 327.502 329.165 357.168 337.073 357.168 329.165 327.502"/><path fill="#F6AB1C" d="M212.208,350.311c0,0,0.642,0.713,0.846,1.877c0.202,1.155,0.415,1.918-0.552,2.809   c-0.973,0.888-14.375,6.677-21.885,6.718c-7.51,0.037-35.454-4.301-36.28-5.022c-0.826-0.722-0.428-3.365,0.984-3.895   C156.732,352.264,212.208,350.311,212.208,350.311"/><path fill="#F05A3B" d="M212.208,350.311c0,0,1.072-8.165-4.057-12.091c-5.13-3.924-13.951-2.832-15.085-3.391   c-1.129-0.554-0.72-5.391-2.458-5.853c-1.738-0.464-7.102-0.527-7.102-0.527l-7.162-2.088l-18.376,7.73   c0,0-1.336,0.172-2.111,3.287c-0.776,3.11-2.006,14.16-0.535,15.419c1.469,1.261,28.156,5.27,36.983,4.008   C201.128,355.536,211.846,351.97,212.208,350.311"/><path fill="#FB9964" d="M175.382,356.162c0.004,0.028,0.009,0.056,0.013,0.085c0.263,0.028,0.527,0.055,0.79,0.082   C176.146,356.321,175.857,356.262,175.382,356.162 M161.219,336.7c0.213,0.322,0.351,0.684,0.441,1.071   c1.417-0.171,3.162-0.259,4.009-0.294c-1.172-0.087-2.242-0.22-3.078-0.397C162.091,336.973,161.634,336.844,161.219,336.7"/><path fill="#7F7F7F" d="M184.169,328.442c0,0,0.029,0.007,0.084,0.02c1.536,0.036,5.018,0.156,6.356,0.513   c1.738,0.462,1.329,5.3,2.458,5.853c1.134,0.559,9.955-0.533,15.085,3.391c0.584,0.447,1.089,0.95,1.523,1.489   c0.004,0.003,0.007,0.005,0.009,0.007c-0.439-0.548-0.943-1.063-1.53-1.513c-5.134-3.926-13.953-2.834-15.087-3.394   c-1.127-0.554-0.717-5.392-2.458-5.854C189.239,328.592,185.645,328.475,184.169,328.442"/><path fill="#E82D1D" d="M184.253,328.462c0.474,0.116,2.869,0.728,4.784,1.682c2.129,1.064,2.287,4.051-1.734,4.818   c-3.436,0.658-6.85,2.481-6.717,2.481c0.022,0,0.146-0.052,0.389-0.171c1.604-0.781,9.015-1.47,11.317-1.47   c0.103,0,0.195,0.001,0.277,0.004c1.909,0.062,4.416,0.313,3.349,1.103c-1.066,0.795-5.89,2.035-8.022,3.509   c-2.132,1.473-4.407,4.435-4.361,6.179c0.021,0.707,0.486,1.1,1.185,1.1c1.018,0,2.532-0.835,3.886-2.753   c2.282-3.233,7.216-5.308,12.72-6.332c1.068-0.199,2.036-0.279,2.903-0.279c3.405,0,5.253,1.238,5.445,1.377   c-0.434-0.539-0.938-1.042-1.523-1.489c-5.13-3.924-13.951-2.832-15.085-3.391c-1.129-0.554-0.72-5.391-2.458-5.853   C189.271,328.619,185.788,328.499,184.253,328.462"/><path fill="#F6AB1C" d="M173.518,369.88c0,0,1.055,1.347,0.827,2.602c-0.229,1.256-0.077,2.254-1.792,2.65   c-1.709,0.393-16.747,0.659-21.001-0.207c-4.255-0.862-23.636-19.159-23.724-20.655c-0.083-1.489,0.651-2.782,1.343-2.848   C129.86,351.357,173.518,369.88,173.518,369.88"/><path fill="#F05A3B" d="M131.477,341.057c0,0-1.114,0.538-1.378,1.255c-0.269,0.708-1.37,7.654-0.928,9.11   c0.437,1.464,18.999,18.637,23.983,19.585c4.989,0.948,17.954,1.261,20.363-1.127c2.408-2.386,3.074-14.982,0.406-17.543   c-2.661-2.561-10.429-7.588-11.644-9.621c-1.216-2.025,0.959-6.464-3.176-7.267c-4.133-0.799-14.429-3.88-14.429-3.88   L131.477,341.057"/><path fill="#F1810E" d="M175.394,356.25c0.17,1.142,0.251,2.422,0.252,3.734C175.646,358.673,175.565,357.392,175.394,356.25   L175.394,356.25"/><path fill="#E82D1D" d="M175.394,356.246c0,0.001,0,0.003,0.001,0.004l0.001,0C175.395,356.249,175.395,356.247,175.394,356.246   L175.394,356.246 M161.66,337.771C161.66,337.771,161.66,337.771,161.66,337.771c0.382,1.646-0.108,3.73,0.621,4.944   c1.215,2.033,8.982,7.06,11.644,9.621c0.714,0.685,1.189,2.09,1.456,3.825c0,0,0,0,0.001,0c-0.267-1.737-0.742-3.142-1.457-3.827   c-2.662-2.56-10.429-7.589-11.644-9.621C161.552,341.499,162.042,339.417,161.66,337.771"/><path fill="#F96632" d="M175.381,356.161c0.004,0.028,0.009,0.056,0.013,0.085l0.001,0   C175.39,356.218,175.386,356.19,175.381,356.161C175.382,356.162,175.381,356.162,175.381,356.161 M161.217,336.699   c0.214,0.322,0.353,0.685,0.443,1.072c0,0,0,0,0.001,0c-0.09-0.387-0.228-0.75-0.441-1.071   C161.219,336.7,161.217,336.7,161.217,336.699"/><path fill="#E82D1D" d="M159.153,335.687l-0.013,0.364c0,0-0.396-0.045-1.061-0.113c0.714,0.435,1.429,1.04,1.567,1.764   c0.303,1.531,0.481,3.521-0.754,3.999c-0.237,0.091-0.605,0.126-1.073,0.126c-0.871,0-2.09-0.124-3.46-0.248   c-1.371-0.124-2.895-0.248-4.375-0.248c-0.392,0-0.782,0.009-1.165,0.028c-4.043,0.212-8.028,1.261-6.555,1.842   c0.615,0.242,1.96,0.29,3.683,0.29c0.569,0,1.18-0.005,1.819-0.01c0.641-0.005,1.311-0.011,1.997-0.011   c1.501,0,3.078,0.025,4.594,0.132c4.991,0.355,11.551,5.936,11.347,6.786c-0.204,0.848-10.013,1.989-13.363,5.416   c-3.354,3.423-2.759,8.991-2.005,9.995c0.11,0.146,0.17,0.215,0.209,0.215c0.227,0-0.278-2.353,4.174-5.301   c3.802-2.514,9.557-4.222,13.717-4.222c1.544,0,2.869,0.235,3.792,0.752c3.405,1.907,0.839,12.513-0.323,13.478v0.006   c0.709-0.238,1.274-0.518,1.613-0.852c1.331-1.32,2.129-5.756,2.128-9.892c-0.001-1.311-0.082-2.591-0.252-3.734   c0-0.001,0-0.003-0.001-0.004c-0.004-0.028-0.008-0.057-0.013-0.085c-0.267-1.735-0.742-3.139-1.456-3.825   c-2.661-2.561-10.429-7.588-11.644-9.621c-0.729-1.215-0.239-3.298-0.622-4.944c-0.09-0.387-0.229-0.75-0.443-1.072   C160.361,336.402,159.683,336.042,159.153,335.687"/><path fill="#FCE630" d="M129.206,351.502c0.699,1.383,10.483,10.603,17.641,15.873c0,0-0.001-0.002-0.003-0.004   C139.69,362.107,129.921,352.899,129.206,351.502"/><path fill="#FB9964" d="M131.488,341.057l-0.009,0.006c0,0-1.107,0.533-1.378,1.248c-0.271,0.71-1.37,7.656-0.928,9.114   c0.007,0.022,0.017,0.047,0.032,0.076c0.715,1.397,10.485,10.605,17.638,15.869c-0.083-0.099-1.859-2.165-6.326-6.704   c-4.575-4.646-4.845-7.052-5.835-8.8c-0.994-1.75-2.528-8.12-1.033-8.155c0.858-0.022,2.617-0.468,3.962-0.844   c-0.21,0.007-0.422,0.01-0.632,0.01c-0.864,0-1.709-0.053-2.402-0.127c-1.835-0.191-3.109-1.304-3.109-1.304L131.488,341.057"/><path fill="#F1BA96" d="M183.659,320.915l-0.265,7.511c0,0-5.87-0.374-6.959,1.78c-1.086,2.149,0.797,5.184-0.223,6.375   c-1.019,1.188-9.78,1.313-13.621,0.499c-3.845-0.819-5.06-2.959-5.06-2.959l0.474-13.629L183.659,320.915"/><path fill="#EA9761" d="M163.238,322.404L163.238,322.404l-0.125,0.119h-0.006l-0.007-0.008l-0.766,7.128l-2.882-0.104   l-0.108,1.115l-0.05,0.964c0,0,0.72,0.278,1.629,0.278c0.842,0,1.846-0.238,2.594-1.153c1.554-1.903-0.687-6.213,2.286-6.213   c0.007,0,0.014,0,0.021,0c2.113,0.012,6.256,1.385,9.546,1.385c1.394,0,2.635-0.246,3.504-0.947   c0.771-0.623,1.06-1.193,1.069-1.694l-16.069-0.836l-0.637-0.035"/><path fill="#F1BA96" d="M159.512,325.397l-0.371,10.653c0,0-12.367-1.418-15.08-0.151c-2.712,1.265-1.763,5.712-3.258,6.402   c-1.494,0.696-4.391,0.646-6.226,0.45c-1.835-0.191-3.109-1.304-3.109-1.304l0.892-16.96L159.512,325.397"/><polyline fill="#7F7F7F" points="132.124 328.557 132.08 329.811 132.146 328.558 132.124 328.557"/><polyline fill="#EA9761" points="159.368 329.537 159.322 330.848 159.326 330.847 159.345 330.655 159.402 329.538 159.368 329.537"/><polyline fill="#DF6330" points="159.402 329.538 159.345 330.655 159.453 329.54 159.402 329.538"/><path fill="#EA9761" d="M132.146,328.558l-0.066,1.253l-0.004,0.121c0,0,9.384,1.913,18.174,1.913c3.28,0,6.476-0.266,9.073-0.997   l0.046-1.311L132.146,328.558"/><path fill="#591C16" d="M186.567,344.158l-0.078-0.027l-0.02-0.176c3.285-4.104,9.1-5.549,9.158-5.562l0.15,0.092l-0.092,0.15   c-0.058,0.015-5.79,1.44-9.021,5.477L186.567,344.158z"/><path fill="#591C16" d="M155.95,358.114l-0.099-0.049l0.022-0.175c4.909-3.775,11.249-3.978,11.312-3.979h0.003l0.125,0.122   l-0.122,0.128c-0.062,0.002-6.323,0.203-11.166,3.927L155.95,358.114z"/><path fill="#1D5A7F" d="M163.116,322.396l0.759,0.042l19.784,1.029l2.908,0.147l-1.978-75.836   c-2.963-12.121-12.822-9.514-16.288-8.179c-0.427,0.158-0.759,0.306-0.962,0.399c-0.171,0.084-0.257,0.127-0.257,0.127   L163.116,322.396"/><path fill="#1D5A7F" d="M130.26,247.779l-3.096,80.6l35.171,1.265l0.778-7.245l3.636-75.421c0,0,1.856-11.888-3.636-15.961   C157.621,226.943,133.152,220.266,130.26,247.779"/><path fill="#1D5A7F" d="M130.264,247.778h54.326l-0.438-16.704l-1.176-45.246h-47.664c0,0-2.599,6.234-3.145,11.385   c-0.021,0.167-0.042,0.335-0.054,0.504c-0.031,0.431-0.053,0.852-0.053,1.262C132.061,204.319,130.264,247.778,130.264,247.778"/><polyline fill="#591C16" points="163.113 322.524 163.108 322.524 162.988 322.392 168.519 207.63 168.65 207.511 168.769 207.642 163.238 322.404 163.113 322.524"/><path fill="#0E2D3F" d="M168.246,247.778h-1.282l-3.571,73.996c0,0,0.139,0.263,0.481,0.663l19.784,1.029   c-0.62-3.248-4.845-7.505-9.967-9.208c-3.262-1.094-5.828-10.492-5.828-10.492L168.246,247.778"/><polyline fill="#0E2D3F" points="168.452 217.029 167.34 239.998 166.964 247.778 168.246 247.778 168.302 239.599 168.452 217.029"/><path fill="#FFF" d="M130.518,235.944c-0.682,19.607-1.521,43.344-2.178,61.829l1.92-49.994c0.002-0.02,0.004-0.04,0.006-0.06   c0.019-0.463,0.149-3.607,0.331-8.104C130.56,237.989,130.534,236.735,130.518,235.944"/><path fill="#3199D8" d="M130.266,247.719c-0.002,0.02-0.004,0.04-0.006,0.06l-1.92,49.994c-0.625,17.582-1.084,30.412-1.084,30.412   l7.75,0.258c2.518-2.845,2.618-16.118-0.309-20.873c-2.118-3.442-3.37-39.892-3.899-59.791h-0.534   C130.264,247.778,130.264,247.758,130.266,247.719"/><path fill="#3199D8" d="M130.597,239.615c-0.182,4.497-0.311,7.642-0.331,8.104c-0.002,0.039-0.002,0.059-0.002,0.059h0.534   C130.712,244.552,130.645,241.76,130.597,239.615"/><path fill="#0E2D3F" d="M155.9,199.128c0,0-0.001,0-0.001,0l-0.008,0.065l0.001,0L155.9,199.128 M183.144,192.318   c-1.839,1.274-4.843,2.969-8.832,3.931c-0.964,0.231-2.015,0.453-3.109,0.665c-0.139,1.143-0.302,2.27-0.464,3.233   c7.906-0.097,12.578-1.181,12.578-1.181L183.144,192.318"/><polyline fill="#591C16" points="340.409 153.493 339.386 153.514 338.778 124.159 339.802 124.137 340.409 153.493"/><polyline fill="#6F953E" points="339.092 114.565 333.534 124.872 336.186 124.817 331.753 133.24 334.404 133.186 330.647 140.57 348.605 140.198 344.5 132.977 347.193 132.688 342.371 124.596 344.743 124.5 339.092 114.565"/><polyline fill="#591C16" points="287.531 63.428 286.508 63.449 285.9 34.094 286.924 34.073 287.531 63.428"/><polyline fill="#6F953E" points="286.214 24.5 280.656 34.808 283.307 34.753 278.875 43.175 281.526 43.121 277.77 50.505 295.727 50.134 291.621 42.912 294.315 42.624 289.493 34.532 291.865 34.436 286.214 24.5"/><polyline fill="#591C16" points="371.074 92.095 369.852 92.12 369.126 57.047 370.349 57.022 371.074 92.095"/><polyline fill="#6F953E" points="369.501 45.585 362.86 57.899 366.028 57.834 360.732 67.897 363.899 67.832 359.411 76.655 380.866 76.211 375.961 67.583 379.18 67.237 373.419 57.57 376.252 57.456 369.501 45.585"/><polyline fill="#591C16" points="274.189 210.521 272.811 210.551 271.993 171.016 273.372 170.989 274.189 210.521"/><polyline fill="#6F953E" points="272.416 158.096 264.931 171.977 268.502 171.904 262.531 183.246 266.103 183.172 261.043 193.118 285.227 192.618 279.697 182.891 283.325 182.503 276.832 171.606 280.026 171.477 272.416 158.096"/><polyline fill="#591C16" points="397.737 113.146 396.784 113.167 396.219 85.828 397.172 85.808 397.737 113.146"/><polyline fill="#6F953E" points="396.511 76.892 391.334 86.492 393.804 86.441 389.675 94.285 392.145 94.234 388.646 101.111 405.37 100.765 401.546 94.04 404.055 93.771 399.564 86.236 401.773 86.146 396.511 76.892"/><polyline fill="#591C16" points="256.445 117.871 255.249 117.894 254.539 83.586 255.735 83.56 256.445 117.871"/><polyline fill="#6F953E" points="254.905 72.373 248.409 84.419 251.509 84.355 246.327 94.199 249.427 94.135 245.035 102.766 266.023 102.331 261.226 93.891 264.373 93.554 258.738 84.097 261.51 83.985 254.905 72.373"/><polyline fill="#591C16" points="230.504 159.966 229.481 159.987 228.873 130.631 229.898 130.61 230.504 159.966"/><polyline fill="#6F953E" points="229.187 121.037 223.629 131.345 226.281 131.29 221.848 139.712 224.499 139.658 220.742 147.042 238.7 146.672 234.595 139.449 237.288 139.161 232.467 131.069 234.838 130.973 229.187 121.037"/><polyline fill="#591C16" points="383.791 174.852 382.473 174.88 381.69 137.061 383.009 137.034 383.791 174.852"/><polyline fill="#6F953E" points="382.094 124.702 374.934 137.981 378.35 137.911 372.639 148.76 376.055 148.69 371.215 158.204 394.349 157.725 389.06 148.42 392.53 148.05 386.318 137.626 389.374 137.502 382.094 124.702"/><polyline fill="#591C16" points="363.02 212.571 361.996 212.593 361.389 183.237 362.412 183.216 363.02 212.571"/><polyline fill="#6F953E" points="361.701 173.643 356.144 183.951 358.796 183.896 354.362 192.319 357.014 192.264 353.257 199.648 371.215 199.277 367.109 192.055 369.803 191.766 364.98 183.674 367.352 183.579 361.701 173.643"/><polyline fill="#37601F" points="339.092 114.565 333.534 124.872 336.186 124.817 331.753 133.24 334.404 133.186 330.647 140.57 348.605 140.198 344.5 132.977 347.193 132.688 343.077 125.78 342.371 124.596 344.743 124.5 339.092 114.565"/><polyline fill="#37601F" points="286.214 24.5 280.656 34.808 283.307 34.753 278.875 43.175 281.526 43.121 279.84 46.435 277.77 50.505 295.727 50.134 291.621 42.912 294.315 42.624 289.493 34.532 291.865 34.436 290.796 32.556 286.214 24.5"/><polyline fill="#37601F" points="369.501 45.585 362.86 57.899 366.028 57.834 360.732 67.897 363.899 67.832 359.411 76.655 380.866 76.211 375.961 67.583 379.18 67.237 378.349 65.843 373.419 57.57 376.252 57.456 369.501 45.585"/><polyline fill="#37601F" points="272.416 158.096 269.991 162.593 264.931 171.977 268.502 171.904 262.531 183.246 266.103 183.172 261.043 193.118 285.227 192.618 279.697 182.891 283.325 182.503 276.832 171.606 280.026 171.477 272.416 158.096"/><polyline fill="#37601F" points="396.511 76.892 391.334 86.492 393.804 86.441 389.675 94.285 392.145 94.234 388.646 101.111 405.37 100.765 401.546 94.04 404.055 93.771 399.564 86.236 401.773 86.146 396.511 76.892"/><polyline fill="#37601F" points="254.905 72.373 248.409 84.419 251.509 84.355 246.327 94.199 249.427 94.135 245.035 102.766 266.023 102.331 261.226 93.891 264.373 93.554 258.738 84.097 261.51 83.985 254.905 72.373"/><polyline fill="#37601F" points="229.187 121.037 223.629 131.345 226.281 131.29 221.848 139.712 224.499 139.658 220.742 147.042 238.7 146.672 234.595 139.449 237.288 139.161 232.467 131.069 234.838 130.973 229.187 121.037"/><polyline fill="#37601F" points="382.094 124.702 374.934 137.981 378.35 137.911 372.639 148.76 376.055 148.69 371.215 158.204 394.349 157.725 389.06 148.42 392.53 148.05 386.318 137.626 389.374 137.502 382.094 124.702"/><polyline fill="#37601F" points="361.701 173.643 356.144 183.951 358.796 183.896 354.362 192.319 357.014 192.264 353.257 199.648 371.215 199.277 368.291 194.133 367.109 192.055 369.803 191.766 368.86 190.185 364.98 183.674 367.352 183.579 361.701 173.643"/><path fill="#F1BA96" d="M209.947,97.346c0,0-0.017,0.05-0.055,0.144c-0.031,0.098-0.094,0.24-0.175,0.41   c-0.189,0.406-0.508,0.961-0.945,1.354c-0.431,0.392-0.9,0.624-1.24,0.759c-0.285,0.119-0.474,0.153-0.474,0.153l-0.253,0.525   l-0.009-0.004l-0.573,1.173l-12.646-6.764l1.115-1.813l0.046-0.095c0,0-0.089-0.741-0.086-1.718   c-0.007-0.411,0.016-0.871,0.067-1.316l0.004-0.014c0.024-0.275,0.066-0.543,0.128-0.811c0.054-0.332,0.154-0.658,0.279-0.947   l0.043-0.115c0.823-1.846,3.596-5.17,4.735-6.601c1.155-1.412,1.594-3.181,2.073-3.33c0.135-0.035,0.375-0.027,0.672,0.059   c0.7,0.201,1.699,0.847,2.037,2.218c0.16,0.627,0.053,1.562-0.172,2.539l-0.036,0.166c-0.486,2.013-1.392,4.144-1.392,4.144   L209.947,97.346"/><path fill="#FFF" d="M194.723,90.139c0,0,0,0.001,0,0.001l-0.007,0.014c-0.015,0.146-0.028,0.291-0.037,0.436   c0.01-0.145,0.024-0.29,0.04-0.434l0.004-0.014C194.723,90.141,194.723,90.14,194.723,90.139"/><path fill="#FBEAE0" d="M199.895,83.443l-3.417,2.669c-0.559,0.801-1.035,1.561-1.303,2.164l-0.041,0.105   c-0.079,0.277-0.238,0.966-0.411,1.758c0,0.001,0,0.002,0,0.003l-0.004,0.014c-0.016,0.144-0.03,0.289-0.04,0.434   c-0.02,0.303-0.028,0.601-0.026,0.881c0.673-1.902,1.89-4.603,3.681-6.153C198.765,84.945,199.324,84.252,199.895,83.443"/><path fill="#F05A3B" d="M179.611,168.809v-0.011l-5.29-20.5c0,0,0.151-0.03,0.428-0.103c-0.099-0.115-0.195-0.224-0.258-0.305   c-0.388-0.494-0.727-0.988-1.034-1.533c-0.694-1.23-1.4-2.451-2.227-3.598c-1.703-2.361-3.798-4.496-5.7-6.699   c-2.485-2.878-5.844-5.73-7.432-9.324c-1.122,0.502-1.755,0.712-1.755,0.712l-16.18,1.91c0,0-2.545,0.756-5.945,2.643   c-2.155,3.146-3.194,7.258-3.651,10.926c-0.275,2.202-0.246,4.44-0.327,6.655c-0.097,2.621-0.201,5.242-0.218,7.864   c-0.033,5.201,0.593,10.234,1.453,15.354c0.864,5.146,1.622,10.271,1.501,15.503c-0.074,3.225-0.36,6.477-0.966,9.66   c1.789,0.833,3.617,1.541,5.423,2.147c0.92,0.022,1.843,0.034,2.77,0.037c3.44,0.011,6.857,0.233,10.299,0.092   c1.762-0.072,3.522-0.175,5.283-0.261l0.107-0.851c0,0,11.45-1.21,18.42-2.88c6.97-1.679,10.931-5.599,10.931-5.599   L179.611,168.809"/><path fill="#F05A3B" d="M182.133,125.164c3.666,2.819,9.488,7.68,15.359,5.285c10.075-14.676,10.909-28.18,10.909-28.18   l-16.949-9.48c0,0-2.351,5.87-7.971,13.11l-0.019,0.029c-1.178,1.522-5.67,6.295-7.147,7.892   C176.068,115.773,179.393,123.057,182.133,125.164"/><path fill="#F05A3B" d="M186.69,120.117c-2.716-1.956-5.633-3.796-8.595-5.358c-0.591-0.311-1.188-0.622-1.781-0.939   c-0.185,0.176-0.355,0.352-0.543,0.528c-5.554,5.164-11.851,9.724-17.675,12.389c0.673,1.603,0.804,11.845,2.494,13.802   c2.004,2.32,13.894,7.184,14.158,7.656c6.91-1.95,14.833-7.684,21.612-16.267c0.367-0.46,0.723-0.929,1.064-1.391   C194.331,126.598,190.673,122.985,186.69,120.117"/><polyline fill="#591C16" points="216.821 100.041 215.377 101.17 183.008 59.729 184.453 58.6 216.821 100.041"/><polyline fill="#6F953E" points="173.163 45.636 176.254 66.38 179.997 63.456 182.678 80.289 186.421 77.366 188.959 91.985 214.309 72.184 200.673 66.235 204.226 62.93 188.63 56.503 191.928 53.82 173.163 45.636"/><polyline fill="#591C16" points="165.654 201.891 164.283 201.755 168.199 162.407 169.571 162.543 165.654 201.891"/><polyline fill="#6F953E" points="170.163 149.629 161.072 162.516 164.626 162.87 157.342 173.417 160.896 173.772 154.685 183.04 178.754 185.436 174.428 175.118 178.075 175.166 172.933 163.571 176.118 163.825 170.163 149.629"/><path fill="#F1BA96" d="M157.651,185.391l0.882,0.381c0,0,0.113-0.609,2.59-0.947c1.378-0.188,4.046,0.129,6.193,0.445   c1.713,0.253,3.095,0.505,3.229,0.502c0.3-0.009-0.938,2.432-1.238,2.731c-0.301,0.3,1.576,0.263,2.139,1.914   c0.563,1.651-0.675,10.585-1.238,12.238c-0.455,1.335-5.432,1.32-8.489,1.305c-0.721-0.003-1.336-0.007-1.758,0.007   c-2.215,0.076-4.576-0.783-4.576-0.783L157.651,185.391"/><path fill="#7F7F7F" d="M203.616,86.113c-0.293,0.802-0.526,1.35-0.526,1.35l2.749,3.962c0.294-0.444,0.591-0.886,0.89-1.326   L203.616,86.113 M206.728,81.785c-0.159,0-0.309,0.048-0.445,0.148c0,0-0.805,0.596-1.8,1.387l0,0   c-0.056,0.23-0.117,0.462-0.181,0.692l3.519,4.506c0.695-0.994,1.404-1.978,2.124-2.952c-0.479-0.32-0.905-0.349-1.046-0.349   c-0.032,0-0.049,0.002-0.049,0.002s0.476-0.271-0.261-1.682C208.014,82.43,207.31,81.785,206.728,81.785"/><path fill="#1A5BB7" d="M207.529,93.861l2.418,3.485c0,0-0.017,0.05-0.055,0.144c0.067,0.021,0.135,0.031,0.205,0.031   c0.02,0,0.041-0.001,0.062-0.002c0.162-0.008,0.387-0.059,0.654-0.144C209.878,96.175,208.661,95.092,207.529,93.861"/><path fill="#437F24" d="M206.73,90.099c-0.299,0.44-0.596,0.882-0.89,1.326l1.69,2.436c1.132,1.231,2.349,2.314,3.284,3.513   c0.348-0.111,0.77-0.28,1.219-0.486L206.73,90.099 M209.945,85.566c-0.72,0.973-1.429,1.958-2.124,2.952l5.867,7.511   c0.764-0.446,1.462-0.928,1.886-1.35c0.065-0.101,0.103-0.195,0.109-0.286c0.103-1.08-1.006-2.34-1.408-2.535   c-0.27-0.135-0.477-0.158-0.589-0.158c-0.06,0-0.093,0.007-0.093,0.007s0.497-0.706-0.278-1.87   c-0.774-1.16-1.962-1.376-1.962-1.376s0.282-0.589-0.55-1.97C210.53,86.045,210.228,85.755,209.945,85.566"/><path fill="#EA9761" d="M202.619,84.836c-0.648,0.551-1.239,1.088-1.635,1.517l-0.009,0.007c-0.312,0.333-0.503,0.606-0.5,0.763   c0.004,0.896,0.845,2.215,1.394,2.4c0.144,0.05,0.278,0.068,0.397,0.068c0.341,0,0.564-0.15,0.564-0.15s-0.714,1.572,0.553,2.705   c0.631,0.565,1.145,0.708,1.502,0.708c0.313,0,0.507-0.11,0.554-0.14c-0.107,0.143-0.879,1.265,0.253,2.566   c0.555,0.638,1.058,0.812,1.442,0.812c0.456,0,0.742-0.244,0.742-0.244s0.719,1.97,1.842,2.052c0.081-0.17,0.143-0.313,0.175-0.41   l0,0c0.038-0.094,0.055-0.144,0.055-0.144l-2.418-3.485l-1.69-2.436l-2.749-3.962c0,0,0.233-0.548,0.526-1.35L202.619,84.836    M204.482,83.32L204.482,83.32c-0.145,0.114-0.294,0.232-0.446,0.353l0.265,0.339C204.366,83.782,204.427,83.55,204.482,83.32   L204.482,83.32"/><path fill="#2C0E0B" d="M204.036,83.673c-0.467,0.372-0.956,0.771-1.417,1.164l0.997,1.277l3.113,3.986l5.303,6.789   c0.535-0.245,1.112-0.543,1.654-0.86l-5.867-7.511l-3.519-4.506L204.036,83.673"/><path fill="#F1BA96" d="M216.005,94.009c-0.018,0.185-0.175,0.418-0.432,0.669c-1.172,1.167-4.436,2.792-5.414,2.84   c-0.092,0.007-0.181-0.001-0.267-0.028c-1.038-0.229-1.692-2.027-1.692-2.027s-0.975,0.832-2.186-0.565   c-1.131-1.304-0.361-2.428-0.255-2.564c-0.1,0.058-0.871,0.489-2.056-0.569c-1.268-1.137-0.55-2.709-0.55-2.709   s-0.401,0.276-0.961,0.09c-0.548-0.187-1.393-1.512-1.395-2.396c-0.002-0.09,0.06-0.227,0.177-0.388l0.009-0.007   c0.54-0.742,2.172-2.113,3.534-3.199c1.143-0.9,2.095-1.606,2.095-1.606c0.624-0.467,1.573,0.196,2.3,1.604   c0.734,1.412,0.268,1.682,0.268,1.682s1.104-0.094,1.943,1.279c0.839,1.373,0.551,1.961,0.551,1.961s1.184,0.215,1.96,1.383   c0.777,1.158,0.28,1.861,0.28,1.861s0.273-0.054,0.68,0.145C215.002,91.669,216.109,92.929,216.005,94.009z"/><path fill="#591C16" d="M203.158,89.177l-0.105-0.058l0.038-0.172c0.044-0.028,4.39-2.792,6.004-4.21l0.176,0.011l-0.012,0.176   c-1.628,1.431-5.989,4.206-6.033,4.233L203.158,89.177z"/><path fill="#591C16" d="M205.773,92.439l-0.108-0.063l0.047-0.17c0.041-0.023,4.076-2.314,5.874-4.215l0.177-0.005l0.005,0.177   c-1.824,1.929-5.892,4.238-5.933,4.261L205.773,92.439z"/><path fill="#591C16" d="M208.2,95.587l-0.11-0.065l0.051-0.169c0.04-0.021,3.965-2.151,5.683-4.111l0.176-0.012l0.012,0.177   c-1.747,1.994-5.711,4.145-5.751,4.166L208.2,95.587z"/><polyline fill="#37601F" points="173.163 45.636 176.254 66.38 179.997 63.456 182.678 80.289 186.421 77.366 188.959 91.985 214.309 72.184 200.673 66.235 204.226 62.93 188.63 56.503 191.928 53.82 173.163 45.636"/><polyline fill="#37601F" points="170.163 149.629 161.072 162.516 164.626 162.87 157.342 173.417 160.896 173.772 154.685 183.04 178.754 185.436 174.428 175.118 178.075 175.166 172.933 163.571 176.118 163.825 170.163 149.629"/><path fill="#7F7F7F" d="M177.209,147.359c-0.831,0.33-1.653,0.609-2.46,0.837c-0.005-0.009-0.013-0.019-0.026-0.03   c0.009,0.01,0.017,0.02,0.026,0.03c-0.277,0.073-0.428,0.103-0.428,0.103S175.391,148.091,177.209,147.359"/><path fill="#1A5BB7" d="M196.18,132.156c-2.566,3.221-5.294,6.035-8.065,8.391C190.667,138.385,193.407,135.638,196.18,132.156    M196.236,132.087c-0.006,0.007-0.012,0.015-0.018,0.022C196.223,132.102,196.23,132.094,196.236,132.087 M196.3,132.006   c-0.003,0.004-0.005,0.007-0.008,0.01C196.295,132.013,196.297,132.009,196.3,132.006 M197.492,130.449   c-0.027,0.024-0.053,0.048-0.08,0.072c0.004,0.006,0.009,0.011,0.013,0.017c-0.341,0.462-0.696,0.931-1.064,1.391   C196.752,131.439,197.132,130.939,197.492,130.449"/><path fill="#E82D1D" d="M170.372,146.032l9.239,22.766l-5.29-20.5l0,0l0,0c0,0,0.151-0.03,0.428-0.103   c-0.009-0.01-0.017-0.02-0.026-0.03C174.47,147.93,172.644,147.098,170.372,146.032"/><path fill="#E82D1D" d="M197.412,130.521c-13.336,11.916-20.055,13.574-22.76,13.574c-1.043,0-1.49-0.246-1.49-0.246l-5.011-3.289   l2.221,5.473c2.272,1.066,4.097,1.898,4.351,2.133c0.012,0.011,0.021,0.021,0.026,0.03c0.807-0.228,1.629-0.507,2.46-0.837   c2.499-1.006,6.413-3.003,10.906-6.811c2.771-2.356,5.498-5.17,8.065-8.391c0.013-0.016,0.024-0.031,0.037-0.047   c0.006-0.007,0.012-0.015,0.018-0.022c0.019-0.023,0.038-0.047,0.056-0.071c0.003-0.004,0.005-0.007,0.008-0.01   c0.021-0.026,0.041-0.051,0.061-0.077l0,0c0.367-0.46,0.723-0.929,1.064-1.391C197.421,130.532,197.416,130.526,197.412,130.521"/><polyline fill="#0E2D3F" points="156.929 203.625 156.931 203.626 156.929 203.625"/><polyline fill="#EA9761" points="157.651 185.391 155.383 203.184 156.929 203.625 156.931 203.626 157.651 185.391"/><path fill="#1A5BB7" d="M206.796,100.688l-0.262,0.536l0,0l0.267-0.534L206.796,100.688 M206.921,100.451l-0.007,0.014   L206.921,100.451"/><polyline fill="#EA9761" points="194.094 94.266 201.233 98.259 206.534 101.224 206.796 100.688 206.801 100.69 206.914 100.464 206.921 100.451 194.094 94.266"/><polyline fill="#E82D1D" points="194.09 94.264 201.233 98.259 194.094 94.266 194.09 94.264"/><path fill="#F05A3B" d="M136.16,130.992c0,0-15.45,5.863-18.807,23.162c-3.358,17.298-2.461,27.46,2.048,33.792   c4.508,6.332,19.367-1.209,20.416-11.721c1.049-10.512,1.56-28.732,0-35.666C138.258,133.626,136.16,130.992,136.16,130.992"/><path fill="#F05A3B" d="M157.651,185.391l-2.318,18.178c0,0-12.479-0.678-21.477-4.788c-8.999-4.111-13.516-8.807-14.982-11.624   c-1.467-2.817,0.896-16.74,10.482-18.358c9.587-1.618,10.78,3.771,10.78,3.771S146.521,181.396,157.651,185.391"/><path fill="#E82D1D" d="M140.474,167.298c-0.096,1.833-0.21,3.608-0.337,5.273c0.068,0.093,4.663,6.393,12.804,10.727   c2.582,1.056,4.688,1.829,5.805,2.226c0.023-0.017,0.049-0.035,0.077-0.053C155.698,183.998,144.215,177.963,140.474,167.298"/><path fill="#EA9761" d="M158.822,185.471c-0.028,0.018-0.054,0.036-0.077,0.053c0.558,0.199,0.869,0.304,0.869,0.304   S159.328,185.71,158.822,185.471"/><path fill="#E82D1D" d="M140.384,153.329c0,0-5.041,7.835-3.951,15.736c3.175,1.121,3.703,3.505,3.703,3.505s0,0,0.001,0.001   c0.127-1.665,0.241-3.44,0.337-5.273C139.069,163.295,138.756,158.64,140.384,153.329"/><path fill="#E82D1D" d="M136.433,169.065c0.289,2.098,1.011,4.2,2.373,6.162c0,0,2.986,3.094,9.176,5.928   c1.747,0.8,3.435,1.521,4.958,2.143c-8.141-4.334-12.736-10.634-12.804-10.727c0-0.001-0.001-0.001-0.001-0.001   S139.608,170.186,136.433,169.065"/><path fill="#591C16" d="M155.89,199.254l-0.016-0.001l-0.108-0.14l1.748-13.64c-1.133-0.433-12.263-4.742-17.774-9.15   c-5.832-4.665-2.08-17.34-2.042-17.468l0.156-0.083l0.084,0.156c-0.038,0.126-3.742,12.641,1.958,17.2   c5.751,4.601,17.679,9.102,17.799,9.146l0.08,0.133l-1.761,13.738L155.89,199.254z"/><polyline fill="#FFF" points="183.462 105.928 183.455 105.937 183.462 105.928 183.462 105.928"/><path fill="#FB9964" d="M183.462,105.928c-0.002,0.003-0.005,0.006-0.007,0.009c-1.961,2.532-4.327,5.222-7.129,7.889   c0.399,0.213,0.799,0.423,1.198,0.632C180.082,111.475,182.1,108.493,183.462,105.928"/><path fill="#FB9964" d="M176.326,113.826c-0.183,0.174-0.368,0.348-0.554,0.522l0,0l0,0c-7.464,6.94-13.577,10.438-16.845,12.006   l0.162,1.344l0,0l0.055,0.461c7.42-2.948,13.776-8.326,18.382-13.7C177.125,114.249,176.725,114.039,176.326,113.826"/><path fill="#FFF" d="M139.378,129.624c-0.703,0.254-1.836,0.698-3.229,1.373c0.007-0.003,0.011-0.004,0.011-0.004   s0,0,0.001,0.001C137.548,130.321,138.677,129.878,139.378,129.624L139.378,129.624"/><path fill="#FB9964" d="M139.378,129.624c-0.701,0.253-1.83,0.697-3.217,1.369c0.019,0.025,0.507,0.648,1.179,2.048   c1.322-0.596,2.702-1.115,4.128-1.529c-1.288-1.042-2.086-1.869-2.086-1.869L139.378,129.624"/><path fill="#FB9964" d="M136.16,130.992c0,0-0.004,0.001-0.011,0.004c-4.835,2.341-12.798,7.45-16.748,16.942   c0.35-0.487,7.388-10.145,17.938-14.898C136.667,131.641,136.18,131.017,136.16,130.992   C136.16,130.992,136.16,130.992,136.16,130.992"/><path fill="#F1BA96" d="M158.474,122.594l0.614,5.104l0.42,3.541c0,0-2.399,4.025-8.154,4.432   c-5.752,0.416-11.972-6.027-11.972-6.027l-0.885-4.196l8.769-1.252L158.474,122.594"/><path fill="#EA9761" d="M158.521,122.984c-0.828,1.193-1.727,2.08-2.545,2.584c-2.52,1.553-5.265,2.075-7.817,2.075   c-3.024,0-5.777-0.733-7.564-1.352c2.141,2.107,5.603,2.73,8.957,2.73c4.883,0,9.536-1.324,9.536-1.324l-0.162-1.344l-0.001-0.008   L158.521,122.984"/><polygon fill="#591C16" points="141.576 110.161 143.158 117.206 139.446 118.735 135.17 113.016"/><path fill="#F1BA96" d="M156.223,100.722c0,0,5.581,8.893,5.119,14.193c-0.46,5.3-3.2,9.318-5.366,10.653   c-7.69,4.739-17.477-0.123-17.477-0.123s-6.399-1.363-7.081-5.656c-0.682-4.293,3.544-6.238,5.493-5.217   c1.947,1.021,2.595,2.603,2.595,2.603s1.232-0.987,1.642-2.385c0.411-1.398,0.037-2.861,0.037-2.861s5.508-2.418,7.709-5.291   c2.2-2.873,2.198-6.713,2.198-6.713S153.26,101.706,156.223,100.722"/><path fill="#591C16" d="M136.537,122.646l-0.1-0.049l0.023-0.175c0.01-0.007,0.906-0.706,1.356-2.154   c0.444-1.436-0.392-2.887-0.399-2.901l0.044-0.171l0.171,0.044c0.037,0.063,0.9,1.559,0.423,3.102   c-0.475,1.529-1.403,2.25-1.442,2.279L136.537,122.646z"/><path fill="#591C16" d="M137.839,120.701l-0.101-0.051c-0.008-0.01-0.781-1.046-1.738-1.43c-0.951-0.381-2.445,0.019-2.459,0.023   l-0.153-0.088l0.087-0.153c0.063-0.018,1.589-0.428,2.619-0.015c1.022,0.412,1.812,1.469,1.846,1.514l-0.026,0.175L137.839,120.701   z"/><path fill="#591C16" d="M161.543,112.666c-1.525,0-3.384-1.631-4.47-4.068c-1.279-2.873-1.007-5.795,0.607-6.516   c1.619-0.717,3.97,1.035,5.25,3.908c1.279,2.874,1.006,5.796-0.608,6.515C162.077,112.613,161.815,112.666,161.543,112.666z    M158.478,102.167c-0.244,0-0.478,0.046-0.695,0.144c-1.488,0.664-1.704,3.438-0.48,6.186c1.223,2.748,3.434,4.438,4.919,3.78   c1.488-0.662,1.704-3.437,0.481-6.185C161.657,103.746,159.896,102.167,158.478,102.167z"/><path fill="#591C16" d="M151.482,116.988c-0.689,0-1.404-0.188-2.1-0.562c-1.198-0.644-2.198-1.762-2.816-3.148   c-0.617-1.386-0.779-2.877-0.456-4.199c0.325-1.333,1.105-2.334,2.195-2.819c1.089-0.486,2.356-0.395,3.564,0.253   c1.198,0.644,2.198,1.762,2.816,3.149c1.279,2.874,0.498,6.022-1.74,7.019C152.484,116.885,151.99,116.988,151.482,116.988z    M149.771,106.2c-0.474,0-0.934,0.095-1.363,0.287c-1.018,0.453-1.747,1.395-2.055,2.65c-0.31,1.268-0.153,2.702,0.442,4.038   c0.595,1.336,1.556,2.412,2.706,3.03c1.138,0.612,2.326,0.7,3.344,0.246c2.112-0.94,2.836-3.941,1.613-6.688   c-0.595-1.336-1.557-2.413-2.706-3.03C151.094,106.378,150.419,106.2,149.771,106.2z"/><path fill="#591C16" d="M154.533,109.75l-0.029-0.004l-0.092-0.15c0.01-0.041,0.249-0.989,1.15-1.39   c0.919-0.407,1.674,0.219,1.706,0.245l0.015,0.176l-0.176,0.016c-0.026-0.022-0.675-0.551-1.443-0.208   c-0.787,0.349-1.007,1.211-1.01,1.22L154.533,109.75z"/><path fill="#591C16" d="M156.973,114.135l-0.122-0.098l0.095-0.149c0.014-0.003,1.367-0.315,1.456-1.172   c0.067-0.666-2.186-3.726-3.717-5.621l0.02-0.176l0.176,0.019c0.396,0.491,3.87,4.822,3.77,5.804   c-0.106,1.036-1.587,1.377-1.649,1.391L156.973,114.135z"/><path fill="#591C16" d="M153.902,119.962c-1.685,0-2.537-0.803-2.574-0.839l-0.003-0.176l0.177-0.004   c0.008,0.008,0.896,0.848,2.661,0.763c1.772-0.089,3.417-1.249,3.434-1.261l0.174,0.029l-0.029,0.174   c-0.069,0.05-1.719,1.215-3.566,1.308C154.082,119.959,153.991,119.962,153.902,119.962z"/><polygon fill="#591C16" points="137.711 115.197 137.591 115.105 137.678 114.952 146.431 112.555 146.584 112.643 146.497 112.796 137.744 115.193"/><path fill="#591C16" d="M149.926,110.991c0.239,0.509,0.709,0.792,1.048,0.632c0.339-0.159,0.42-0.701,0.182-1.209   c-0.239-0.509-0.708-0.792-1.048-0.633C149.769,109.94,149.688,110.482,149.926,110.991z"/><path fill="#591C16" d="M157.725,107.749c0.239,0.509,0.708,0.792,1.047,0.633c0.34-0.159,0.422-0.701,0.182-1.21   c-0.238-0.509-0.707-0.792-1.047-0.633C157.567,106.699,157.486,107.24,157.725,107.749z"/><path fill="#1C5A7F" d="M160.114,97.484c0,0-1.791,2.493-9.706,9.6c-7.916,7.107-21.353,14.306-21.353,14.306l-0.105-7.235   c0,0-3.897-9.36-2.753-11.626c1.146-2.264,15.658-13.195,18.06-12.859s9.068,5.646,9.068,5.646L160.114,97.484"/><path fill="#591C16" d="M129.982,113.726l-0.11-0.065l0.051-0.169c0.048-0.026,4.812-2.616,11.633-7.592   c6.815-4.973,11.115-10.029,11.157-10.079l0.177-0.015l0.015,0.176c-0.043,0.051-4.361,5.129-11.202,10.12   c-6.836,4.987-11.613,7.584-11.66,7.609L129.982,113.726"/><path fill="#FFF" d="M128.338,112.599c0.325,0.866,0.55,1.417,0.55,1.417l0.073,7.277c0,0,0.031-0.017,0.093-0.051l-0.102-7.087   C128.951,114.155,128.697,113.545,128.338,112.599 M127.828,100.491c-0.858,0.797-1.44,1.44-1.638,1.828   c-0.212,0.417-0.255,1.076-0.185,1.874c-0.05-0.703,0-1.283,0.192-1.663c0.188-0.371,0.734-0.974,1.527-1.723   C127.787,100.604,127.828,100.491,127.828,100.491"/><path fill="#3099D8" d="M127.725,100.807c-0.793,0.748-1.339,1.352-1.527,1.723c-0.192,0.38-0.242,0.96-0.192,1.663   c0.222,2.494,1.56,6.346,2.332,8.407c0.359,0.946,0.613,1.556,0.613,1.556l0.102,7.087c0.115-0.063,0.337-0.184,0.654-0.355   l0.055-0.043l0.411-7.207c-0.083,0.046-0.127,0.07-0.132,0.073l-0.06,0.015l-0.11-0.065l0.051-0.169   c0.006-0.003,0.091-0.049,0.249-0.138c-0.4-0.259-1.106-3.224-2.405-6.119C126.667,104.812,127.43,101.78,127.725,100.807"/><path fill="#973025" d="M130.172,113.353c-0.158,0.088-0.242,0.135-0.249,0.138l-0.051,0.169l0.11,0.065l0.06-0.015   c0.004-0.002,0.049-0.027,0.132-0.073l0.016-0.275C130.184,113.361,130.178,113.357,130.172,113.353"/><path fill="#FFF" d="M144.103,89.46c-0.634,0-1.871,0.575-3.42,1.479c0.277-0.136,0.571-0.225,0.876-0.273   c1.155-0.627,2.07-1.003,2.582-1.003c0.042,0,0.081,0.002,0.117,0.008c2.401,0.335,9.068,5.646,9.068,5.646l6.486,2.071   l0.179,0.015l-6.748-2.215c0,0-6.622-5.377-9.012-5.719C144.192,89.463,144.149,89.46,144.103,89.46"/><path fill="#3099D8" d="M144.141,89.663c-0.512,0-1.427,0.377-2.582,1.003c0.185-0.029,0.374-0.043,0.567-0.043   c2.417,0,5.406,2.167,7.43,3.92c-0.013,0.029-2.997,6.842-11.185,13.587c0.072-0.04,0.145-0.08,0.217-0.121   c0.935-0.647,1.927-1.351,2.968-2.109c6.815-4.973,11.115-10.029,11.157-10.079l0.177-0.015l0.015,0.176   c-0.042,0.05-4.222,4.966-10.87,9.876c5.399-3.631,11.246-8.543,12.244-8.927l5.534,0.457l-6.486-2.071   c0,0-6.667-5.311-9.068-5.646C144.221,89.665,144.183,89.663,144.141,89.663"/><path fill="#973025" d="M152.89,95.805l-0.177,0.015c-0.042,0.05-4.342,5.106-11.157,10.079c-1.04,0.759-2.033,1.462-2.968,2.109   c1.089-0.613,2.257-1.351,3.446-2.151c6.648-4.911,10.828-9.826,10.87-9.876L152.89,95.805"/></svg>